<?xml version="1.0" encoding="UTF-8" standalone="no"?>
<!DOCTYPE svg PUBLIC "-//W3C//DTD SVG 1.1//EN" "http://www.w3.org/Graphics/SVG/1.1/DTD/svg11.dtd">
<svg xmlns="http://www.w3.org/2000/svg" xmlns:xlink="http://www.w3.org/1999/xlink" version="1.1" viewBox="0 0 841.89 595.28">
<g enable-background="new">
<g>
<g id="Layer-1" data-name="Layer 1">
<clipPath id="cp0">
<path transform="matrix(1,0,0,-1,0,595.28)" d="M 0 595.28 L 841.89 595.28 L 841.89 0 L 0 0 Z "/>
</clipPath>
<g clip-path="url(#cp0)">
<g>
<clipPath id="cp1">
<path transform="matrix(1,0,0,-1,0,595.28)" d="M 177.19 136.171 L 643.799 136.171 L 643.799 464.702 L 177.19 464.702 Z "/>
</clipPath>
<g clip-path="url(#cp1)">
<path transform="matrix(1,0,0,-1,643.7993,265.60374)" d="M 0 0 C 0 0 -1.14 -7.299 -10.41 -10.913 C -19.68 -14.527 -26.391 -12 -26.391 -12 L -29.92 -5.966 C -29.92 -5.966 -36.289 8.196 -36.84 10.216 C -37.391 12.235 -32.138 17.185 -29.127 21.064 C -26.115 24.943 -23.401 29.564 -24.532 31.092 C -25.662 32.621 -29.451 31.584 -34.464 28.143 C -36.808 26.535 -38.641 24.849 -40.419 22.777 L -47.638 38.381 C -47.638 38.381 -43.02 37.024 -36.855 37.793 C -33.867 38.171 -30.508 39.043 -27.139 40.818 C -18.555 45.335 -11.585 49.864 -8.835 51.618 C -8.283 51.967 -7.897 52.208 -7.708 52.315 C -6.581 52.939 0 0 0 0 " fill="#be1e2d"/>
<path transform="matrix(1,0,0,-1,487.5332,323.94895)" d="M 0 0 L -4.082 4.815 C -4.082 4.815 -5.078 5.795 -3.014 6.881 C -.951 7.967 3.891 5.752 8.132 4.964 C 12.374 4.177 14.108 5.627 15.262 4.376 C 15.584 4.026 16.317 2.56 17.204 .34 C 19.516 -5.398 22.89 -16.186 23.004 -25.77 C 23.062 -30.812 23.467 -39.216 23.842 -48.247 C 23.855 -48.614 23.875 -48.982 23.888 -49.349 L 23.887 -49.356 C 24.481 -63.825 24.96 -79.605 23.813 -85.59 C 21.921 -95.482 24.284 -114.698 23.606 -120.743 C 22.928 -126.788 22.429 -132.849 21.181 -132.745 C 19.933 -132.643 -.222 -105.141 -1.436 -100.196 C -1.64 -99.354 -1.905 -98.22 -2.189 -96.875 C -3.581 -90.344 -5.619 -79.107 -5.29 -75.115 C -4.893 -70.303 -4.831 -56.491 -4.772 -55.778 C -4.713 -55.065 -10.162 -71.096 -10.162 -71.096 C -10.162 -71.096 -13.43 -56.32 -13.288 -48.078 C -13.147 -39.835 -15.98 -26.323 -17.634 -20.266 C -18.749 -16.197 -19.953 -7.47 -20.128 -1.412 L -20.127 -1.405 C -20.213 1.552 -20.058 3.879 -19.522 4.711 C -19.522 4.711 -18.342 8.145 -16.025 7.954 C -13.744 7.766 -.418 .235 0 0 " fill="#be1e2d"/>
<path transform="matrix(1,0,0,-1,418.7158,272.83274)" d="M 0 0 C -.448 -.128 -.89 -.257 -1.339 -.392 L -1.339 -.399 C -16.414 -4.855 -32.555 -10.235 -40.677 -13.857 C -53.345 -19.51 -67.758 -8.631 -54.649 2.368 C -41.54 13.367 -39.092 16.244 -25.052 18.948 C -14.288 21.017 -6.636 25.203 -6.636 25.203 C -6.463 29.301 -6.01 33.054 -4.932 33.675 C -2.42 35.147 28.711 39.873 39.271 38.766 C 45.206 38.14 48.188 37.916 49.787 37.295 C 51.024 36.806 51.432 36.083 51.737 34.745 C 52.108 33.149 52.287 30.005 52.365 27.386 C 52.443 25.018 52.447 23.065 52.447 23.065 C 55.442 24.742 58.054 26.831 59.789 29.415 C 67.156 40.414 69.559 46.316 71.462 46.16 C 73.359 46.003 76.901 42.481 76.667 33.887 C 76.438 25.293 79.226 17.046 71.031 13.415 C 68.036 12.09 62.9 11.257 56.747 10.544 C 46.057 9.294 32.287 8.384 21.364 5.79 C 15.521 4.398 7.952 2.337 0 0 " fill="#be1e2d"/>
<path transform="matrix(1,0,0,-1,417.0415,325.16963)" d="M 0 0 C -.585 -2.393 -1.094 -5.172 -.928 -7.073 C -.574 -11.05 -6.151 -31.764 -10.584 -39.832 C -15.018 -47.9 -23.716 -70.689 -23.716 -70.689 L -24.419 -57.281 C -24.389 -56.401 -24.368 -55.527 -24.361 -54.666 C -24.238 -43.594 -25.579 -34.002 -25.659 -33.414 L -24.419 -57.281 C -24.517 -60.561 -24.765 -63.914 -25.219 -67.156 C -26.388 -75.501 -30.445 -86.579 -34.581 -95.476 L -34.582 -95.482 C -38.184 -103.225 -41.837 -109.312 -43.686 -110.494 C -47.664 -113.037 -71.646 -134.027 -72.715 -133.939 C -73.784 -133.852 -74.099 -131.134 -73.656 -127.94 C -73.213 -124.747 -75.19 -87.799 -74.913 -82.259 C -74.663 -77.313 -60.57 -48.458 -52.146 -32.564 C -51.143 -30.667 -50.212 -28.949 -49.401 -27.479 C -41.81 -13.751 -32.461 12.574 -32.461 12.574 C -32.461 12.574 -28.674 12.8 -26.758 12.104 C -24.841 11.407 -17.587 3.632 -17.587 3.632 L -19.729 8.115 C -19.729 8.115 -15.601 8.134 -13.284 7.942 C -10.967 7.751 -8.084 5.719 -8.084 5.719 L -11.735 2.79 C -11.735 2.79 -3.614 5.53 -2.292 6.318 C -.972 7.106 1.347 4.762 1.347 4.762 C 1.347 4.762 .632 2.617 0 0 " fill="#be1e2d"/>
<path transform="matrix(1,0,0,-1,283.9995,133.11502)" d="M 0 0 C 1.328 -1.308 -16.497 -71.672 -16.497 -71.672 C -19.885 -69.24 -22.055 -67.266 -23.391 -68.233 C -24.101 -68.749 -24.706 -71.117 -24.908 -73.491 C -24.908 -73.491 -26.928 -69.434 -29.095 -68.645 L -29.067 -68.562 C -29.067 -68.562 -11.366 1.174 -9.735 2.238 C -8.863 2.805 -6.52 2.497 -4.33 1.886 C -2.414 1.362 -.618 .604 0 0 " fill="#be1e2d"/>
<path transform="matrix(1,0,0,-1,260.2734,267.64875)" d="M 0 0 L -.001 -.014 C -.001 -.014 -1.557 -6.69 -3.556 -9.877 C -5.549 -13.065 -15.303 -25.417 -23.324 -42.521 C -31.344 -59.624 -39.925 -112.153 -44.097 -113.481 C -48.276 -114.809 -80.338 -111.928 -82.124 -110.345 C -83.903 -108.763 -82.955 -105.97 -81.326 -100.664 C -79.689 -95.358 -50.907 -48.084 -33.932 -22.065 C -29.931 -15.935 -26.693 -9.75 -24.085 -3.885 C -23.223 -1.961 -22.436 -.066 -21.709 1.776 C -19.958 6.218 -18.574 10.382 -17.484 14.103 C -14.548 24.125 -13.739 30.892 -13.739 30.892 C -13.084 30.385 -12.342 29.894 -11.499 29.415 C -10.402 28.793 -9.397 28.265 -8.487 27.817 L -8.48 27.809 C -8.34 27.683 -5.448 24.975 -7.854 18.168 C -10.31 11.193 -19.594 -1.987 -16.158 -4.539 C -12.715 -7.091 -8.489 -7.978 -6.517 -3.654 C -4.539 .668 -3.957 2.494 -3.957 2.494 C -2.922 1.296 -1.724 .25 0 0 " fill="#be1e2d"/>
</g>
</g>
<path transform="matrix(1,0,0,-1,391.3823,358.58375)" stroke-width="1.431" stroke-linecap="butt" stroke-miterlimit="10" stroke-linejoin="miter" fill="none" stroke="#be1e2d" d="M 0 0 L 1.24 -23.867 L 1.943 -37.275 C 1.943 -37.275 10.642 -14.486 15.075 -6.418 C 19.508 1.65 25.085 22.364 24.731 26.341 C 24.565 28.242 25.074 31.021 25.659 33.414 C 26.292 36.031 27.006 38.176 27.006 38.176 C 27.006 38.176 24.687 40.521 23.367 39.732 C 22.045 38.944 13.924 36.204 13.924 36.204 L 17.575 39.133 C 17.575 39.133 14.692 41.165 12.375 41.356 C 10.058 41.548 5.93 41.529 5.93 41.529 L 8.072 37.046 C 8.072 37.046 .818 44.821 -1.099 45.518 C -3.015 46.214 -6.802 45.988 -6.802 45.988 C -6.802 45.988 -16.15 19.663 -23.742 5.935 C -24.553 4.465 -25.484 2.747 -26.487 .85 C -34.911 -15.044 -49.004 -43.898 -49.254 -48.845 C -49.531 -54.385 -47.554 -91.333 -47.997 -94.526 C -48.439 -97.72 -48.125 -100.438 -47.056 -100.525 C -45.986 -100.613 -22.005 -79.623 -18.027 -77.08 C -16.178 -75.897 -12.525 -69.811 -8.922 -62.068 "/>
<path transform="matrix(1,0,0,-1,382.4604,420.64524)" stroke-width="1.431" stroke-linecap="butt" stroke-miterlimit="10" stroke-linejoin="miter" fill="none" stroke="#be1e2d" d="M 0 0 C 4.136 8.896 8.193 19.975 9.362 28.319 C 9.816 31.562 10.064 34.915 10.162 38.194 C 10.192 39.074 10.213 39.948 10.22 40.81 C 10.343 51.882 9.002 61.474 8.922 62.062 C 8.917 62.084 8.917 62.091 8.917 62.091 "/>
<path transform="matrix(1,0,0,-1,318.9995,298.39524)" stroke-width="1.431" stroke-linecap="butt" stroke-miterlimit="10" stroke-linejoin="miter" fill="none" stroke="#be1e2d" d="M 0 0 L -.016 -.02 L -6.798 -9.315 L -18.409 -25.219 C -18.409 -25.219 -22.152 -24.91 -22.852 -22.52 C -23.552 -20.129 -26.003 -19.389 -26.894 -19.315 C -27.785 -19.241 -23.289 -14.768 -23.289 -14.768 L -29.553 -18.916 C -29.553 -18.916 -32.878 -20.078 -33.979 -18.192 C -35.08 -16.308 -34.681 -13.648 -34.681 -13.648 C -34.681 -13.648 -30.86 -9.27 -26.166 -3.864 C -19.647 3.637 -11.457 13.125 -9.474 15.675 C -8.39 17.071 -7.52 18.306 -6.804 19.331 C -5.273 21.53 -4.473 22.799 -3.867 22.749 C -2.975 22.676 8.619 10.953 9.393 9.454 C 10.166 7.955 12.049 -1.848 13.659 -1.908 C 15.269 -1.977 15.586 8.405 17.071 9 C 18.556 9.595 25.756 -1.004 28.987 -3.173 C 32.217 -5.348 40.681 -9.333 41.717 -11.996 C 42.755 -14.65 46.209 -24.984 46.209 -24.984 L 43.322 -12.128 C 43.322 -12.128 44.533 -10.491 46.494 -10.652 C 48.454 -10.814 50.322 -12.103 52.411 -12.877 C 54.501 -13.646 59.874 -9.423 61.434 -10.09 C 62.994 -10.757 65.581 -14.2 65.581 -14.2 "/>
<path transform="matrix(1,0,0,-1,364.895,357.73414)" stroke-width="1.431" stroke-linecap="butt" stroke-miterlimit="10" stroke-linejoin="miter" fill="none" stroke="#be1e2d" d="M 0 0 L -5.128 7.528 L -4.741 23.107 L -11.515 8.414 C -11.515 8.414 -34.468 17.305 -36.447 21.595 C -38.426 25.886 -39.73 23.122 -40.443 23.181 C -41.157 23.239 -44.453 22.435 -44.514 23.875 C -44.574 25.315 -44.622 29.088 -46.063 29.027 C -47.503 28.967 -53.501 28.04 -54.26 29.71 C -55.02 31.381 -55.788 43.825 -53.624 48.313 C -53.363 48.858 -53.05 49.436 -52.693 50.023 C -50.279 54.145 -46.198 58.983 -45.912 59.319 "/>
<path transform="matrix(1,0,0,-1,511.4199,373.30543)" stroke-width="1.431" stroke-linecap="butt" stroke-miterlimit="10" stroke-linejoin="miter" fill="none" stroke="#be1e2d" d="M 0 0 C .594 -14.469 1.073 -30.249 -.073 -36.233 C -1.966 -46.126 .397 -65.342 -.281 -71.387 C -.958 -77.432 -1.458 -83.492 -2.706 -83.389 C -3.954 -83.286 -24.108 -55.784 -25.323 -50.84 C -25.526 -49.997 -25.792 -48.863 -26.076 -47.519 C -27.468 -40.987 -29.505 -29.751 -29.176 -25.759 C -28.78 -20.946 -28.717 -7.135 -28.659 -6.422 C -28.6 -5.709 -34.049 -21.739 -34.049 -21.739 C -34.049 -21.739 -37.316 -6.964 -37.175 1.278 C -37.034 9.521 -39.867 23.033 -41.521 29.091 C -42.635 33.159 -43.839 41.887 -44.015 47.944 "/>
<path transform="matrix(1,0,0,-1,487.5396,323.95683)" stroke-width="1.431" stroke-linecap="butt" stroke-miterlimit="10" stroke-linejoin="miter" fill="none" stroke="#be1e2d" d="M 0 0 L -.006 .008 L -4.088 4.823 C -4.088 4.823 -5.084 5.803 -3.021 6.889 C -.957 7.975 3.884 5.76 8.126 4.972 C 12.368 4.185 14.102 5.635 15.255 4.384 C 15.578 4.034 16.311 2.567 17.198 .348 C 19.509 -5.391 22.883 -16.178 22.998 -25.762 C 23.055 -30.805 23.46 -39.208 23.835 -48.239 C 23.849 -48.606 23.868 -48.975 23.881 -49.341 "/>
<path transform="matrix(1,0,0,-1,467.4062,325.35423)" stroke-width="1.431" stroke-linecap="butt" stroke-miterlimit="10" stroke-linejoin="miter" fill="none" stroke="#be1e2d" d="M 0 0 C -.086 2.957 .069 5.284 .604 6.116 C .604 6.116 1.785 9.55 4.102 9.359 C 6.383 9.171 19.708 1.641 20.127 1.405 "/>
<path transform="matrix(1,0,0,-1,548.0249,336.32304)" stroke-width="1.431" stroke-linecap="butt" stroke-miterlimit="10" stroke-linejoin="miter" fill="none" stroke="#be1e2d" d="M 0 0 C -.332 -1.674 -1.593 -8.438 -.749 -9.606 C .218 -10.942 -.732 -11.581 4.284 -7.329 C 9.3 -3.078 15.045 .274 16.177 3.109 "/>
<path transform="matrix(1,0,0,-1,511.4199,373.30543)" stroke-width="1.431" stroke-linecap="butt" stroke-miterlimit="10" stroke-linejoin="miter" fill="none" stroke="#be1e2d" d="M 0 0 L .001 .008 C .247 .288 6.268 7.336 9.567 13.215 C 12.933 19.218 15.393 25.116 15.393 25.116 L 12.212 10.484 C 12.212 10.484 22.84 17.504 25.036 20.193 C 27.231 22.884 29.693 26.628 32.262 27.313 C 34.522 27.917 36.225 35.241 36.605 36.982 C 36.609 37.025 36.619 37.061 36.629 37.096 C 36.629 37.103 36.63 37.117 36.631 37.124 C 36.633 37.146 36.642 37.166 36.644 37.188 C 36.652 37.209 36.654 37.229 36.656 37.251 L 36.657 37.259 C 36.657 37.266 36.665 37.272 36.658 37.28 C 36.667 37.294 36.668 37.308 36.668 37.314 C 36.669 37.322 36.669 37.329 36.669 37.329 C 36.679 37.35 36.679 37.357 36.679 37.357 "/>
<path transform="matrix(1,0,0,-1,551.1938,292.06135)" stroke-width="1.431" stroke-linecap="butt" stroke-miterlimit="10" stroke-linejoin="miter" fill="none" stroke="#be1e2d" d="M 0 0 C 0 0 -15.318 -9.324 -16 -11.062 C -16.681 -12.8 -8.535 -11.678 -8.535 -11.678 C -8.535 -11.678 -15.264 -19.557 -17.625 -19.9 C -19.986 -20.243 -18.063 -12.147 -18.063 -12.147 C -18.063 -12.147 -20.898 -13.888 -26.092 -18.125 C -31.287 -22.362 -46.457 -31.548 -46.457 -31.548 "/>
<path transform="matrix(1,0,0,-1,551.1938,292.06135)" stroke-width="1.431" stroke-linecap="butt" stroke-miterlimit="10" stroke-linejoin="miter" fill="none" stroke="#be1e2d" d="M 0 0 C -1.061 2.019 -1.768 3.541 -1.83 4.099 C -2.039 5.91 3.409 8.871 4.256 8.262 C 5.103 7.654 3.977 4.876 5.686 3.838 C 7.394 2.8 8.074 6.691 9.588 7.643 C 11.102 8.595 5.902 10.818 5.902 10.818 C 5.902 10.818 10.872 16.689 13.621 15.206 C 14.335 14.817 15.333 13.163 16.454 10.831 C 19.671 4.149 23.875 -8.069 25.036 -11.754 C 25.724 -13.936 27.183 -17.745 28.608 -21.437 C 30.445 -26.146 32.247 -30.666 32.389 -31.381 C 32.643 -32.658 25.341 -38.516 24.435 -38.621 C 23.529 -38.726 22.397 -35.043 21.685 -34.984 C 20.972 -34.926 16.395 -42.73 16.419 -43.394 C 16.449 -43.984 13.758 -43.281 13.008 -41.152 C 12.903 -40.856 12.836 -40.528 12.823 -40.175 C 12.701 -37.294 13.238 -22.086 9.267 -15.837 C 6.522 -11.52 2.37 -4.516 0 0 Z "/>
<path transform="matrix(1,0,0,-1,567.6479,281.23023)" stroke-width="1.431" stroke-linecap="butt" stroke-miterlimit="10" stroke-linejoin="miter" fill="none" stroke="#be1e2d" d="M 0 0 C 0 0 8.628 8.454 16.656 16.585 C 24.684 24.715 23.691 21.388 28.794 28.863 C 31.569 32.926 33.619 35.937 35.732 38.404 C 37.51 40.475 39.343 42.162 41.687 43.77 C 46.701 47.21 50.49 48.248 51.62 46.719 C 52.75 45.19 50.036 40.569 47.024 36.69 C 44.013 32.812 38.76 27.861 39.312 25.842 C 39.862 23.823 46.231 9.66 46.231 9.66 C 46.231 9.66 41.123 8.646 40.486 7.442 C 39.848 6.239 12.154 -32.268 12.154 -32.268 "/>
<path transform="matrix(1,0,0,-1,603.3799,242.82642)" stroke-width="1.431" stroke-linecap="butt" stroke-miterlimit="10" stroke-linejoin="miter" fill="none" stroke="#be1e2d" d="M 0 0 L -7.219 15.604 C -7.219 15.604 -2.601 14.247 3.564 15.016 C 6.552 15.394 9.911 16.266 13.28 18.041 C 21.864 22.558 28.834 27.086 31.584 28.841 C 32.137 29.19 32.522 29.431 32.711 29.538 C 33.839 30.162 40.419 -22.777 40.419 -22.777 C 40.419 -22.777 39.279 -30.076 30.009 -33.69 C 20.739 -37.304 14.028 -34.777 14.028 -34.777 L 10.5 -28.744 "/>
<path transform="matrix(1,0,0,-1,606.9443,227.80344)" stroke-width="1.431" stroke-linecap="butt" stroke-miterlimit="10" stroke-linejoin="miter" fill="none" stroke="#be1e2d" d="M 0 0 C 0 0 10.216 9.077 10.747 13.34 C 11.277 17.603 6.46 24.46 9.916 29.379 C 13.372 34.298 16.863 33.113 21.627 36.488 C 26.392 39.863 25.125 44.095 29.076 44.128 C 33.026 44.161 36.248 46.229 35.11 38.965 C 33.973 31.702 36.408 32.937 35.833 28.139 C 35.257 23.341 35.378 24.81 32.187 20.925 C 28.996 17.039 28.02 13.818 28.02 13.818 "/>
<path transform="matrix(1,0,0,-1,607.3042,207.68534)" stroke-width="1.431" stroke-linecap="butt" stroke-miterlimit="10" stroke-linejoin="miter" fill="none" stroke="#be1e2d" d="M 0 0 C 0 0 2.565 4.992 -4.506 6.293 C -11.576 7.594 -13.814 6.565 -12.552 4.466 C -11.29 2.366 -.346 4.515 0 0 Z "/>
<path transform="matrix(1,0,0,-1,635.9121,178.46262)" stroke-width="1.431" stroke-linecap="butt" stroke-miterlimit="10" stroke-linejoin="miter" fill="none" stroke="#be1e2d" d="M 0 0 C 0 0 -1.664 .539 .676 8.198 C 1.905 12.224 4.841 17.365 8.75 14.71 C 12.155 12.398 13.732 9.684 9.248 7.606 C 4.762 5.529 -.108 5.213 0 0 Z "/>
<path transform="matrix(1,0,0,-1,649.8223,192.56522)" stroke-width="1.431" stroke-linecap="butt" stroke-miterlimit="10" stroke-linejoin="miter" fill="none" stroke="#be1e2d" d="M 0 0 C 0 0 3.59 -3.899 8.817 -3.613 C 14.045 -3.326 16.975 .61 14.285 2.806 C 11.595 5.001 8.455 4.614 5.637 3.519 C 1.5 1.907 6.242 -2.646 0 0 Z "/>
<path transform="matrix(1,0,0,-1,412.1284,259.23313)" stroke-width="1.431" stroke-linecap="butt" stroke-miterlimit="10" stroke-linejoin="miter" fill="none" stroke="#be1e2d" d="M 0 0 C 0 0 -.279 6.109 -.048 11.603 C .125 15.702 .578 19.454 1.655 20.076 C 4.167 21.548 35.298 26.273 45.859 25.166 C 51.793 24.54 54.775 24.316 56.375 23.696 C 57.612 23.206 58.019 22.483 58.325 21.145 C 58.696 19.549 58.875 16.405 58.953 13.786 C 59.03 11.418 59.034 9.466 59.034 9.466 "/>
<path transform="matrix(1,0,0,-1,417.3765,273.23173)" stroke-width="1.431" stroke-linecap="butt" stroke-miterlimit="10" stroke-linejoin="miter" fill="none" stroke="#be1e2d" d="M 0 0 C -15.074 -4.456 -31.215 -9.836 -39.338 -13.458 C -52.006 -19.111 -66.419 -8.232 -53.31 2.767 C -40.201 13.766 -37.753 16.643 -23.713 19.347 C -12.948 21.416 -5.296 25.602 -5.296 25.602 "/>
<path transform="matrix(1,0,0,-1,447.7666,256.42994)" stroke-width="1.431" stroke-linecap="butt" stroke-miterlimit="10" stroke-linejoin="miter" fill="none" stroke="#be1e2d" d="M 0 0 C 0 0 13.671 1.184 23.396 6.663 C 26.391 8.339 29.003 10.428 30.738 13.012 C 38.105 24.011 40.508 29.914 42.412 29.757 C 44.308 29.601 47.851 26.079 47.616 17.484 C 47.388 8.89 50.175 .643 41.98 -2.988 C 38.985 -4.313 33.849 -5.146 27.696 -5.858 C 17.006 -7.108 3.236 -8.019 -7.687 -10.613 C -13.529 -12.005 -21.099 -14.065 -29.051 -16.403 C -29.499 -16.531 -29.94 -16.66 -30.39 -16.795 "/>
<path transform="matrix(1,0,0,-1,473.7534,238.97785)" stroke-width="1.431" stroke-linecap="butt" stroke-miterlimit="10" stroke-linejoin="miter" fill="none" stroke="#be1e2d" d="M 0 0 C -1.27 5.409 -8.495 15.795 -23.444 20.609 C -40.923 26.243 -44.458 42.92 -45.328 46.818 "/>
<path transform="matrix(1,0,0,-1,471.0879,245.44754)" stroke-width="1.431" stroke-linecap="butt" stroke-miterlimit="10" stroke-linejoin="miter" fill="none" stroke="#be1e2d" d="M 0 0 C 0 0 2.005 .201 2.816 4.204 C 2.928 4.776 2.891 5.547 2.671 6.455 "/>
<path transform="matrix(1,0,0,-1,474.062,239.58472)" stroke-width="1.431" stroke-linecap="butt" stroke-miterlimit="10" stroke-linejoin="miter" fill="none" stroke="#be1e2d" d="M 0 0 C 0 0 4.395 10.038 -.605 17.635 C -5.6 25.225 -13.953 27.249 -18.309 35.008 C -20.744 39.336 -22.472 41.093 -22.472 41.093 L -23.694 32.459 C -23.694 32.459 -33.618 34.411 -37.277 44.345 C -42.462 58.41 -41.217 66.203 -41.217 66.203 C -41.217 66.203 -56.247 49.14 -53.579 38.153 C -50.91 27.167 -40.896 23.707 -40.896 23.707 L -51.88 25.151 L -45.012 17.048 L -39.272 15.799 L -42.755 12.734 C -42.755 12.734 -38.846 7.302 -28.237 7.475 C -16.099 7.666 -9.26 6.254 -5.337 4.56 C -2.155 3.2 -.905 1.64 -.309 .607 C -.309 .6 -.302 .599 -.303 .592 C -.178 .367 -.08 .165 0 0 "/>
<path transform="matrix(1,0,0,-1,418.709,272.82493)" stroke-width="1.431" stroke-linecap="butt" stroke-miterlimit="10" stroke-linejoin="miter" fill="none" stroke="#be1e2d" d="M 0 0 L .007 -.008 C .311 -.241 10.124 -7.797 28.099 -11.167 C 41.797 -13.732 48.573 -15.389 51.476 -15.786 C 52.441 -15.916 52.98 -15.91 53.201 -15.749 C 54.094 -15.105 54.584 -6.288 54.963 -3.089 C 55.349 .109 56.754 10.537 56.754 10.537 "/>
<path transform="matrix(1,0,0,-1,417.377,273.22483)" stroke-width="1.431" stroke-linecap="butt" stroke-miterlimit="10" stroke-linejoin="miter" fill="none" stroke="#be1e2d" d="M 0 0 L 0 -.007 L -.639 -7.749 C -.639 -7.749 -5.401 -9.617 -5.838 -10.572 C -6.275 -11.519 -5.248 -20.813 -5.385 -22.481 C -5.522 -24.142 -6.127 -25.65 -5.594 -26.412 C -5.054 -27.173 -.116 -29.612 .293 -30.486 C .702 -31.352 2.214 -44.877 2.735 -48.746 "/>
<path transform="matrix(1,0,0,-1,470.1846,288.6111)" stroke-width="1.431" stroke-linecap="butt" stroke-miterlimit="10" stroke-linejoin="miter" fill="none" stroke="#be1e2d" d="M 0 0 C 0 0 1.589 -1.617 1.452 -3.278 C 1.315 -4.939 .135 -8.553 .087 -9.388 C .047 -10.218 .178 -15.253 -.471 -16.161 C -.633 -16.385 -1.027 -16.546 -1.54 -16.669 C -3.077 -17.037 -5.633 -17.049 -5.927 -17.384 C -6.322 -17.832 -9.474 -25.582 -9.814 -26.753 "/>
<path transform="matrix(1,0,0,-1,483.0811,305.60914)" stroke-width="1.431" stroke-linecap="butt" stroke-miterlimit="10" stroke-linejoin="miter" fill="none" stroke="#be1e2d" d="M 0 0 C -.046 .492 -1.016 10.664 .125 11.797 C 1.298 12.957 11.179 .04 11.541 -2.1 C 11.902 -4.247 5.919 -9.345 .773 -8.641 C -4.372 -7.93 -7.198 -7.381 -7.198 -7.381 L -6.286 -9.379 L -13.963 -7.426 L -14.436 .329 "/>
<path transform="matrix(1,0,0,-1,473.6719,275.91435)" stroke-width="1.431" stroke-linecap="butt" stroke-miterlimit="10" stroke-linejoin="miter" fill="none" stroke="#be1e2d" d="M 0 0 C 0 0 4.114 -.942 5.024 -5.145 C 5.933 -9.347 7.846 -10.006 7.837 -18.985 C 7.833 -25.574 9.278 -29.368 9.409 -29.695 C 9.415 -29.709 9.415 -29.716 9.415 -29.716 "/>
<path transform="matrix(1,0,0,-1,470.1128,303.06135)" stroke-width="1.431" stroke-linecap="butt" stroke-miterlimit="10" stroke-linejoin="miter" fill="none" stroke="#be1e2d" d="M 0 0 L 3.792 -5.638 "/>
<path transform="matrix(1,0,0,-1,467.4053,325.3611)" stroke-width="1.431" stroke-linecap="butt" stroke-miterlimit="10" stroke-linejoin="miter" fill="none" stroke="#be1e2d" d="M 0 0 L .001 .007 "/>
<path transform="matrix(1,0,0,-1,461.4092,337.06135)" stroke-width="1.431" stroke-linecap="round" stroke-linejoin="round" fill="none" stroke="#be1e2d" d="M 0 0 C 2.67 5.572 5.861 11.453 5.996 11.7 "/>
<path transform="matrix(1,0,0,-1,455.2607,351.03883)" stroke-width="1.431" stroke-linecap="butt" stroke-miterlimit="10" stroke-linejoin="miter" fill="none" stroke="#be1e2d" d="M 0 0 C 1.382 2.054 2.362 3.832 2.59 5.126 C 2.897 6.846 4.414 10.345 6.148 13.978 "/>
<path transform="matrix(1,0,0,-1,422.1543,339.32984)" stroke-width="1.431" stroke-linecap="butt" stroke-miterlimit="10" stroke-linejoin="miter" fill="none" stroke="#be1e2d" d="M 0 0 C .612 -5.541 1.276 -12.293 2.28 -16.567 C 2.785 -18.712 3.841 -23.056 5.057 -27.986 C 7.68 -38.646 11.016 -52.07 11.016 -52.07 C 11.016 -52.07 16.43 -35.686 20.926 -28.34 C 21.514 -27.384 22.186 -26.377 22.91 -25.346 C 26.112 -20.801 30.385 -15.733 33.099 -11.716 "/>
<path transform="matrix(1,0,0,-1,416.7163,324.93534)" stroke-width="1.431" stroke-linecap="butt" stroke-miterlimit="10" stroke-linejoin="miter" fill="none" stroke="#be1e2d" d="M 0 0 C 0 0 .123 -.074 .325 -.234 C 1.175 -.894 3.48 -2.964 4.339 -6.652 C 4.732 -8.328 5.073 -11.156 5.431 -14.394 "/>
<path transform="matrix(1,0,0,-1,455.2534,351.04563)" stroke-width="1.431" stroke-linecap="round" stroke-linejoin="round" fill="none" stroke="#be1e2d" d="M 0 0 L -17.866 -10.362 L -28.042 -16.271 "/>
<path transform="matrix(1,0,0,-1,455.2607,351.03883)" stroke-width="1.431" stroke-linecap="butt" stroke-miterlimit="10" stroke-linejoin="miter" fill="none" stroke="#be1e2d" d="M 0 0 L -.007 -.007 "/>
<path transform="matrix(1,0,0,-1,422.1543,339.32984)" stroke-width="1.431" stroke-linecap="round" stroke-linejoin="round" fill="none" stroke="#be1e2d" d="M 0 0 L 19.778 -7 L 33.106 -11.709 "/>
<path transform="matrix(1,0,0,-1,422.147,339.32884)" stroke-width="1.431" stroke-linecap="butt" stroke-miterlimit="10" stroke-linejoin="miter" fill="none" stroke="#be1e2d" d="M 0 0 L .007 -.001 "/>
<path transform="matrix(1,0,0,-1,414.188,393.81135)" stroke-width="1.431" stroke-linecap="round" stroke-linejoin="round" fill="none" stroke="#be1e2d" d="M 0 0 C 0 0 4.936 9.282 3.865 17.625 C 2.801 25.967 1.487 45.635 4.027 48.835 C 6.566 52.034 7.959 54.482 7.959 54.482 "/>
<path transform="matrix(1,0,0,-1,462.8022,391.71955)" stroke-width="1.431" stroke-linecap="round" stroke-linejoin="round" fill="none" stroke="#be1e2d" d="M 0 0 C 0 0 -3.306 4.041 -1.276 9.077 C .754 14.114 3.043 19.667 .972 27.375 C -1.105 35.082 -2.638 52.098 -1.403 54.623 C -1.395 54.637 -1.394 54.651 -1.393 54.658 C -.965 55.843 -11.099 50.635 -20.87 45.39 C -29.775 40.619 -38.368 35.822 -38.368 35.822 L -25.415 30.312 L -17.738 27.044 "/>
<path transform="matrix(1,0,0,-1,250.4648,209.89963)" stroke-width="1.431" stroke-linecap="round" stroke-linejoin="round" fill="none" stroke="#be1e2d" d="M 0 0 C 1.476 -3.337 4.56 -7.726 7.524 -10.073 C 9.101 -11.316 10.629 -12.454 11.947 -13.28 C 14.021 -14.585 15.577 -15.13 15.985 -14.18 C 16.634 -12.662 15.781 -8.558 15.734 -8.353 "/>
<path transform="matrix(1,0,0,-1,259.0913,206.60575)" stroke-width="1.431" stroke-linecap="round" stroke-linejoin="round" fill="none" stroke="#be1e2d" d="M 0 0 C 0 0 -2.02 4.057 -4.187 4.846 C -4.688 5.038 -5.204 5.044 -5.7 4.776 C -8.328 3.378 -9.638 2.718 -9.522 -.227 C -9.493 -1.004 -9.165 -2.08 -8.633 -3.286 "/>
<path transform="matrix(1,0,0,-1,247.3105,217.77173)" stroke-width="1.431" stroke-linecap="round" stroke-linejoin="round" fill="none" stroke="#be1e2d" d="M 0 0 C 2.112 -3.196 5.125 -6.352 6.502 -7.24 C 8.165 -8.311 11.67 -11.062 14.216 -12.226 C 15.579 -12.848 16.656 -13.016 17.036 -12.236 C 18.118 -9.992 15.101 -5.408 15.101 -5.408 "/>
<path transform="matrix(1,0,0,-1,250.4648,209.89963)" stroke-width="1.431" stroke-linecap="round" stroke-linejoin="round" fill="none" stroke="#be1e2d" d="M 0 0 L -.006 .008 C -.176 .129 -2.673 1.965 -4.996 -.966 C -6.102 -2.361 -4.959 -5.125 -3.161 -7.864 "/>
<path transform="matrix(1,0,0,-1,247.1323,228.02802)" stroke-width="1.431" stroke-linecap="round" stroke-linejoin="round" fill="none" stroke="#be1e2d" d="M 0 0 C 1.361 -1.519 2.771 -2.791 3.815 -3.437 C 5.413 -4.43 8.015 -5.951 10.393 -6.973 C 12.84 -8.021 15.05 -8.548 15.689 -7.417 C 16.95 -5.187 14.394 -1.969 14.394 -1.969 "/>
<path transform="matrix(1,0,0,-1,247.3105,217.77173)" stroke-width="1.431" stroke-linecap="round" stroke-linejoin="round" fill="none" stroke="#be1e2d" d="M 0 0 L -.006 .008 C -.164 .1 -2.693 1.55 -4.47 -1.024 C -5.708 -2.817 -3.044 -7.063 -.192 -10.248 "/>
<path transform="matrix(1,0,0,-1,251.793,239.83963)" stroke-width="1.431" stroke-linecap="round" stroke-linejoin="round" fill="none" stroke="#be1e2d" d="M 0 0 C 3.567 -1.744 5.797 -2.208 6.981 -1.774 C 7.439 -1.618 7.736 -1.319 7.899 -.91 C 8.581 .829 5.732 4.839 5.732 4.839 "/>
<path transform="matrix(1,0,0,-1,247.1323,228.02802)" stroke-width="1.431" stroke-linecap="round" stroke-linejoin="round" fill="none" stroke="#be1e2d" d="M 0 0 C 0 0 -.007 0 -.014 .008 C -.269 .137 -3.343 1.675 -4.484 .37 C -5.53 -.829 -5.431 -5.021 -.598 -8.729 C .057 -9.235 .799 -9.727 1.642 -10.206 C 2.739 -10.828 3.744 -11.355 4.654 -11.804 "/>
<path transform="matrix(1,0,0,-1,254.9326,201.67655)" stroke-width="1.431" stroke-linecap="round" stroke-linejoin="round" fill="none" stroke="#be1e2d" d="M 0 0 C 0 0 17.701 69.735 19.332 70.8 C 20.204 71.367 22.547 71.059 24.737 70.447 C 26.653 69.923 28.449 69.165 29.067 68.562 C 30.395 67.253 12.57 -3.111 12.57 -3.111 "/>
<path transform="matrix(1,0,0,-1,279.6694,131.22922)" stroke-width="1.431" stroke-linecap="round" stroke-linejoin="round" fill="none" stroke="#be1e2d" d="M 0 0 C 0 0 -2.035 7.97 -.55 8.565 C .935 9.161 6.042 10.175 12.04 7.527 C 18.044 4.878 19.593 3.552 19.706 1.871 C 19.811 .182 8.849 -20.203 6.458 -30.054 C 4.066 -39.906 -5.913 -80.06 -5.913 -80.06 "/>
<path transform="matrix(1,0,0,-1,246.5347,236.75714)" stroke-width="1.431" stroke-linecap="round" stroke-linejoin="round" fill="none" stroke="#be1e2d" d="M 0 0 C 0 0 -.809 -6.767 -3.746 -16.789 C -4.835 -20.51 -6.219 -24.674 -7.971 -29.116 C -8.697 -30.958 -9.484 -32.853 -10.347 -34.777 C -12.955 -40.641 -16.192 -46.827 -20.193 -52.957 C -37.168 -78.976 -65.951 -126.25 -67.587 -131.555 C -69.216 -136.862 -70.164 -139.655 -68.385 -141.237 C -66.6 -142.82 -34.538 -145.701 -30.358 -144.373 C -26.187 -143.044 -17.605 -90.515 -9.585 -73.413 C -1.564 -56.309 8.19 -43.957 10.183 -40.769 C 12.182 -37.582 13.738 -30.906 13.738 -30.906 "/>
<path transform="matrix(1,0,0,-1,262.0581,259.93635)" stroke-width="1.431" stroke-linecap="round" stroke-linejoin="round" fill="none" stroke="#be1e2d" d="M 0 0 C -1.306 1.048 -2.121 2.572 -2.121 2.572 C -2.507 3.027 -3.019 3.436 -3.58 3.769 C -5.174 4.712 -7.176 5.071 -7.907 4.212 C -9.695 2.12 -9.48 -.683 -7.604 -2.897 C -6.995 -3.615 -6.403 -4.446 -5.742 -5.218 C -4.707 -6.416 -3.508 -7.462 -1.785 -7.712 C -1.196 -7.797 -.549 -7.792 .171 -7.666 C 2.822 -7.202 7.355 -4.281 10.29 -1.602 C 12.004 -.042 13.167 1.434 13.109 2.3 C 12.944 4.646 10.999 3.952 7.741 2.477 C 4.475 .995 3.481 -1.299 1.735 -.896 C 1.094 -.75 .504 -.408 0 0 Z "/>
<path transform="matrix(1,0,0,-1,242.7891,253.54563)" stroke-width="3.577" stroke-linecap="butt" stroke-linejoin="round" fill="none" stroke="#be1e2d" d="M 0 0 C 0 0 -9.467 6.358 -14.404 -3.463 C -19.341 -13.284 -6.601 -17.988 -6.601 -17.988 "/>
<path transform="matrix(1,0,0,-1,234.9937,257.55393)" stroke-width="3.577" stroke-linecap="butt" stroke-linejoin="round" fill="none" stroke="#be1e2d" d="M 0 0 C 0 0 -1.491 -3.107 -.426 -5.168 C .646 -7.23 3.57 -8.319 3.57 -8.319 "/>
<path transform="matrix(1,0,0,-1,251.7866,239.83182)" stroke-width="1.431" stroke-linecap="round" stroke-linejoin="round" fill="none" stroke="#be1e2d" d="M 0 0 L .006 -.008 C .147 -.134 3.039 -2.842 .633 -9.648 C -1.823 -16.624 -11.107 -29.804 -7.671 -32.356 C -4.228 -34.908 -.002 -35.794 1.97 -31.471 C 3.948 -27.148 4.53 -25.323 4.53 -25.323 "/>
<path transform="matrix(1,0,0,-1,258.478,256.17405)" stroke-width="1.431" stroke-linecap="round" stroke-linejoin="round" fill="none" stroke="#be1e2d" d="M 0 0 L 0 .007 C .045 .118 1.126 2.864 .713 8.647 L .295 14.553 "/>
<path transform="matrix(1,0,0,-1,262.1699,259.79463)" stroke-width="1.431" stroke-linecap="round" stroke-linejoin="round" fill="none" stroke="#be1e2d" d="M 0 0 L 2.413 10.28 L 8.423 35.911 C 8.255 36.916 6.276 39.204 4.029 41.542 L 4.029 41.549 C 1.386 44.315 -1.616 47.168 -2.414 48.11 C -3.107 48.928 -3.254 51.057 -3.079 53.189 C -2.876 55.563 -2.271 57.931 -1.561 58.447 C -.226 59.414 1.944 57.44 5.333 55.007 C 6.654 54.059 9.069 51.491 11.586 48.499 C 15.522 43.832 19.683 38.141 20.275 36.011 C 21.243 32.521 20.273 20.758 20.273 20.758 C 20.273 20.758 28.926 10.355 30.517 7.891 C 32.108 5.427 50.025 -19.27 50.025 -19.27 "/>
<path transform="matrix(1,0,0,-1,264.4932,249.37772)" stroke-width="1.431" stroke-linecap="round" stroke-linejoin="round" fill="none" stroke="#be1e2d" d="M 0 0 L .089 -.137 L 5.306 -8.082 "/>
<path transform="matrix(1,0,0,-1,272.3477,261.53834)" stroke-width="1.431" stroke-linecap="round" stroke-linejoin="round" fill="none" stroke="#be1e2d" d="M 0 0 C 0 0 12.481 -33.343 20.486 -40.721 "/>
<path transform="matrix(1,0,0,-1,382.46,420.65214)" stroke-width="1.431" stroke-linecap="round" stroke-linejoin="round" fill="none" stroke="#be1e2d" d="M 0 0 C -.106 -.587 -4.853 -27.686 -6.996 -33.66 "/>
<path transform="matrix(1,0,0,-1,382.4604,420.64524)" stroke-width="1.431" stroke-linecap="butt" stroke-miterlimit="10" stroke-linejoin="miter" fill="none" stroke="#be1e2d" d="M 0 0 L 0 -.007 "/>
<path transform="matrix(1,0,0,-1,485.3354,420.75856)" stroke-width="1.431" stroke-linecap="round" stroke-linejoin="round" fill="none" stroke="#be1e2d" d="M 0 0 C 0 0 .005 -.022 .009 -.065 C .049 -.622 .322 -4.621 -.393 -8.337 C -.731 -10.082 -1.287 -11.773 -2.185 -13.006 "/>
<path transform="matrix(1,0,0,-1,484.9424,429.09544)" stroke-width="1.431" stroke-linecap="round" stroke-linejoin="round" fill="none" stroke="#be1e2d" d="M 0 0 C 0 0 2.9 -5.744 5.042 -17.542 C 7.177 -29.338 8.432 -32.313 8.432 -32.313 "/>
<path transform="matrix(1,0,0,-1,478.2974,434.56224)" stroke-width="1.431" stroke-linecap="round" stroke-linejoin="round" fill="none" stroke="#be1e2d" d="M 0 0 C 0 0 -6.832 -2.071 -20.43 -1.424 "/>
<path transform="matrix(1,0,0,-1,596.1611,227.22293)" stroke-width="1.431" stroke-linecap="butt" stroke-miterlimit="10" stroke-linejoin="miter" fill="none" stroke="#be1e2d" d="M 0 0 C 0 0 -1.026 5.31 8.923 10.031 C 18.261 14.465 21.53 12.76 21.53 12.76 "/>
<path transform="matrix(1,0,0,-1,459.0068,313.09843)" stroke-width="1.431" stroke-linecap="round" stroke-miterlimit="10" stroke-linejoin="miter" fill="none" stroke="#be1e2d" d="M 0 0 L -1.058 -12.832 "/>
<path transform="matrix(1,0,0,-1,457.2173,310.07984)" stroke-width="1.431" stroke-linecap="round" stroke-miterlimit="10" stroke-linejoin="miter" fill="none" stroke="#be1e2d" d="M 0 0 L -1.686 -20.439 "/>
<path transform="matrix(1,0,0,-1,455.4453,309.10813)" stroke-width="1.431" stroke-linecap="round" stroke-miterlimit="10" stroke-linejoin="miter" fill="none" stroke="#be1e2d" d="M 0 0 L -.745 -9.032 "/>
<path transform="matrix(1,0,0,-1,454.5449,320.03004)" stroke-width="1.431" stroke-linecap="round" stroke-miterlimit="10" stroke-linejoin="miter" fill="none" stroke="#be1e2d" d="M 0 0 L -.989 -11.998 "/>
<path transform="matrix(1,0,0,-1,453.5937,307.62773)" stroke-width="1.431" stroke-linecap="round" stroke-miterlimit="10" stroke-linejoin="miter" fill="none" stroke="#be1e2d" d="M 0 0 L -.675 -8.191 "/>
<path transform="matrix(1,0,0,-1,452.4858,321.06614)" stroke-width="1.431" stroke-linecap="round" stroke-miterlimit="10" stroke-linejoin="miter" fill="none" stroke="#be1e2d" d="M 0 0 L -.872 -10.572 "/>
<path transform="matrix(1,0,0,-1,451.9292,306.05445)" stroke-width="1.431" stroke-linecap="round" stroke-miterlimit="10" stroke-linejoin="miter" fill="none" stroke="#be1e2d" d="M 0 0 L -.676 -8.191 "/>
<path transform="matrix(1,0,0,-1,450.0229,304.53395)" stroke-width="1.431" stroke-linecap="round" stroke-miterlimit="10" stroke-linejoin="miter" fill="none" stroke="#be1e2d" d="M 0 0 L -.675 -8.191 "/>
<path transform="matrix(1,0,0,-1,448.0254,303.34254)" stroke-width="1.431" stroke-linecap="round" stroke-miterlimit="10" stroke-linejoin="miter" fill="none" stroke="#be1e2d" d="M 0 0 L -.676 -8.198 "/>
<path transform="matrix(1,0,0,-1,446.2109,302.89134)" stroke-width="1.431" stroke-linecap="round" stroke-miterlimit="10" stroke-linejoin="miter" fill="none" stroke="#be1e2d" d="M 0 0 L -.676 -8.199 "/>
<path transform="matrix(1,0,0,-1,444.4775,302.153)" stroke-width="1.431" stroke-linecap="round" stroke-miterlimit="10" stroke-linejoin="miter" fill="none" stroke="#be1e2d" d="M 0 0 L -.676 -8.191 "/>
<path transform="matrix(1,0,0,-1,442.3955,301.98124)" stroke-width="1.431" stroke-linecap="round" stroke-miterlimit="10" stroke-linejoin="miter" fill="none" stroke="#be1e2d" d="M 0 0 L -.675 -8.191 "/>
<path transform="matrix(1,0,0,-1,440.5562,301.82984)" stroke-width="1.431" stroke-linecap="round" stroke-miterlimit="10" stroke-linejoin="miter" fill="none" stroke="#be1e2d" d="M 0 0 L -.675 -8.191 "/>
<path transform="matrix(1,0,0,-1,438.4507,301.94993)" stroke-width="1.431" stroke-linecap="round" stroke-miterlimit="10" stroke-linejoin="miter" fill="none" stroke="#be1e2d" d="M 0 0 L -.676 -8.199 "/>
<path transform="matrix(1,0,0,-1,424.8042,307.10523)" stroke-width="1.431" stroke-linecap="round" stroke-miterlimit="10" stroke-linejoin="miter" fill="none" stroke="#be1e2d" d="M 0 0 L -.745 -9.033 "/>
<path transform="matrix(1,0,0,-1,426.7593,305.93925)" stroke-width="1.431" stroke-linecap="round" stroke-miterlimit="10" stroke-linejoin="miter" fill="none" stroke="#be1e2d" d="M 0 0 L -.675 -8.191 "/>
<path transform="matrix(1,0,0,-1,428.6592,304.65995)" stroke-width="1.431" stroke-linecap="round" stroke-miterlimit="10" stroke-linejoin="miter" fill="none" stroke="#be1e2d" d="M 0 0 L -.675 -8.191 "/>
<path transform="matrix(1,0,0,-1,430.7886,303.47145)" stroke-width="1.431" stroke-linecap="round" stroke-miterlimit="10" stroke-linejoin="miter" fill="none" stroke="#be1e2d" d="M 0 0 L -.676 -8.199 "/>
<path transform="matrix(1,0,0,-1,432.9546,302.62385)" stroke-width="1.431" stroke-linecap="round" stroke-miterlimit="10" stroke-linejoin="miter" fill="none" stroke="#be1e2d" d="M 0 0 L -.676 -8.198 "/>
<path transform="matrix(1,0,0,-1,421.0664,310.39335)" stroke-width="1.431" stroke-linecap="round" stroke-miterlimit="10" stroke-linejoin="miter" fill="none" stroke="#be1e2d" d="M 0 0 L -.955 -11.577 L -1.058 -12.832 "/>
<path transform="matrix(1,0,0,-1,423.0581,307.30543)" stroke-width="1.431" stroke-linecap="round" stroke-miterlimit="10" stroke-linejoin="miter" fill="none" stroke="#be1e2d" d="M 0 0 L -1.492 -18.087 "/>
<path transform="matrix(1,0,0,-1,434.6401,302.46165)" stroke-width="1.431" stroke-linecap="round" stroke-miterlimit="10" stroke-linejoin="miter" fill="none" stroke="#be1e2d" d="M 0 0 L -.676 -8.198 "/>
<path transform="matrix(1,0,0,-1,436.312,301.77415)" stroke-width="1.431" stroke-linecap="round" stroke-miterlimit="10" stroke-linejoin="miter" fill="none" stroke="#be1e2d" d="M 0 0 L -.676 -8.198 "/>
<path transform="matrix(1,0,0,-1,423.0303,328.62083)" stroke-width="1.431" stroke-linecap="round" stroke-miterlimit="10" stroke-linejoin="miter" fill="none" stroke="#be1e2d" d="M 0 0 L .843 10.223 "/>
<path transform="matrix(1,0,0,-1,424.7539,330.26344)" stroke-width="1.431" stroke-linecap="round" stroke-miterlimit="10" stroke-linejoin="miter" fill="none" stroke="#be1e2d" d="M 0 0 L .765 9.275 "/>
<path transform="matrix(1,0,0,-1,426.4023,332.02903)" stroke-width="1.431" stroke-linecap="round" stroke-miterlimit="10" stroke-linejoin="miter" fill="none" stroke="#be1e2d" d="M 0 0 L .765 9.275 "/>
<path transform="matrix(1,0,0,-1,428.2378,334.40504)" stroke-width="1.431" stroke-linecap="round" stroke-miterlimit="10" stroke-linejoin="miter" fill="none" stroke="#be1e2d" d="M 0 0 L 1.006 12.198 "/>
<path transform="matrix(1,0,0,-1,430.2549,335.3611)" stroke-width="1.431" stroke-linecap="round" stroke-miterlimit="10" stroke-linejoin="miter" fill="none" stroke="#be1e2d" d="M 0 0 L 1.006 12.205 "/>
<path transform="matrix(1,0,0,-1,431.9473,335.11985)" stroke-width="1.431" stroke-linecap="round" stroke-miterlimit="10" stroke-linejoin="miter" fill="none" stroke="#be1e2d" d="M 0 0 L 1.006 12.205 "/>
<path transform="matrix(1,0,0,-1,433.8765,336.35624)" stroke-width="1.431" stroke-linecap="round" stroke-miterlimit="10" stroke-linejoin="miter" fill="none" stroke="#be1e2d" d="M 0 0 L 1.006 12.198 "/>
<path transform="matrix(1,0,0,-1,436.6074,324.30055)" stroke-width="1.431" stroke-linecap="round" stroke-miterlimit="10" stroke-linejoin="miter" fill="none" stroke="#be1e2d" d="M 0 0 L -1.006 -12.197 "/>
<path transform="matrix(1,0,0,-1,438.6689,324.72145)" stroke-width="1.431" stroke-linecap="round" stroke-miterlimit="10" stroke-linejoin="miter" fill="none" stroke="#be1e2d" d="M 0 0 L -.985 -11.948 "/>
<path transform="matrix(1,0,0,-1,440.9214,324.90705)" stroke-width="1.431" stroke-linecap="round" stroke-miterlimit="10" stroke-linejoin="miter" fill="none" stroke="#be1e2d" d="M 0 0 L -.985 -11.948 "/>
<path transform="matrix(1,0,0,-1,443.0034,325.07884)" stroke-width="1.431" stroke-linecap="round" stroke-miterlimit="10" stroke-linejoin="miter" fill="none" stroke="#be1e2d" d="M 0 0 L -1.038 -12.583 "/>
<path transform="matrix(1,0,0,-1,444.6851,324.96653)" stroke-width="1.431" stroke-linecap="round" stroke-miterlimit="10" stroke-linejoin="miter" fill="none" stroke="#be1e2d" d="M 0 0 L -.881 -10.679 "/>
<path transform="matrix(1,0,0,-1,446.668,324.16093)" stroke-width="1.431" stroke-linecap="round" stroke-miterlimit="10" stroke-linejoin="miter" fill="none" stroke="#be1e2d" d="M 0 0 L -.915 -11.086 "/>
<path transform="matrix(1,0,0,-1,448.5181,322.78495)" stroke-width="1.431" stroke-linecap="round" stroke-miterlimit="10" stroke-linejoin="miter" fill="none" stroke="#be1e2d" d="M 0 0 L -.992 -12.033 "/>
<path transform="matrix(1,0,0,-1,450.4106,324.46955)" stroke-width="1.431" stroke-linecap="round" stroke-miterlimit="10" stroke-linejoin="miter" fill="none" stroke="#be1e2d" d="M 0 0 L -.844 -10.23 "/>
<path transform="matrix(1,0,0,-1,514.0117,435.36116)" d="M 0 0 C .016 -.103 .035 -.205 .06 -.309 C .085 -.412 .115 -.515 .148 -.617 C .129 -.371 .078 -.166 0 0 M .763 -2.045 C .741 -2.096 .719 -2.142 .695 -2.181 C .672 -2.221 .645 -2.256 .615 -2.286 C .628 -2.491 .594 -2.694 .516 -2.896 C .407 -3.098 .295 -3.201 .18 -3.208 C .062 -3.215 -.06 -3.177 -.187 -3.091 C -.165 -3.315 -.125 -3.544 -.066 -3.775 C -.009 -4.007 .059 -4.236 .136 -4.463 C .213 -4.691 .289 -4.915 .367 -5.137 C .443 -5.359 .507 -5.572 .558 -5.778 C .581 -5.891 .606 -6.012 .631 -6.142 C .654 -6.269 .628 -6.389 .549 -6.498 C .482 -6.588 .411 -6.643 .336 -6.66 C .262 -6.68 .19 -6.671 .122 -6.64 C .053 -6.605 -.009 -6.553 -.062 -6.48 C -.115 -6.408 -.146 -6.325 -.152 -6.232 C -.189 -5.904 -.266 -5.58 -.381 -5.261 C -.498 -4.94 -.598 -4.626 -.681 -4.318 C -.724 -4.174 -.771 -4.019 -.82 -3.854 C -.871 -3.688 -.913 -3.519 -.946 -3.345 C -.977 -3.17 -.994 -2.996 -.993 -2.822 C -.992 -2.648 -.967 -2.486 -.916 -2.334 C -.837 -2.162 -.738 -2.055 -.621 -2.013 C -.505 -1.97 -.382 -1.977 -.253 -2.031 C -.274 -1.826 -.311 -1.621 -.361 -1.415 C -.428 -1.148 -.503 -.883 -.588 -.619 C -.673 -.357 -.735 -.091 -.774 .175 C -.797 .35 -.792 .528 -.759 .711 C -.726 .895 -.629 1.029 -.469 1.116 C -.271 1.223 -.088 1.225 .082 1.123 C .25 1.021 .395 .869 .513 .667 C .633 .464 .729 .244 .801 .008 C .871 -.23 .915 -.426 .93 -.579 C .949 -.836 .943 -1.085 .915 -1.33 C .885 -1.574 .833 -1.812 .763 -2.045 " fill="#be1e2d"/>
<path transform="matrix(1,0,0,-1,515.3691,442.77125)" d="M 0 0 C .088 -.035 .164 -.017 .23 .055 C .24 .069 .244 .082 .244 .091 C .244 .098 .249 .105 .257 .114 C .275 .202 .297 .312 .321 .446 C .345 .578 .359 .715 .363 .856 C .366 .997 .353 1.13 .319 1.252 C .288 1.374 .23 1.464 .152 1.522 C .145 1.522 .137 1.527 .129 1.535 C .063 1.521 .013 1.465 -.027 1.365 C -.065 1.265 -.095 1.154 -.114 1.033 C -.135 .912 -.146 .796 -.149 .684 C -.152 .569 -.154 .494 -.156 .453 C -.141 .371 -.125 .293 -.108 .215 C -.091 .138 -.054 .067 0 0 M .238 -.38 C .18 -.378 .134 -.368 .102 -.351 C .07 -.331 .048 -.305 .035 -.268 C .022 -.232 .021 -.189 .027 -.144 C .033 -.096 .044 -.05 .057 -.003 C -.047 .001 -.134 .044 -.207 .129 C -.258 .189 -.298 .28 -.327 .403 C -.356 .524 -.371 .657 -.372 .799 C -.373 .94 -.363 1.082 -.34 1.224 C -.316 1.365 -.281 1.487 -.229 1.592 C -.178 1.697 -.111 1.772 -.028 1.817 C .054 1.862 .151 1.856 .269 1.799 C .369 1.756 .446 1.684 .5 1.585 C .554 1.485 .592 1.375 .615 1.253 C .638 1.131 .65 1.008 .652 .881 C .654 .753 .651 .639 .644 .539 C .641 .479 .633 .399 .62 .296 C .605 .193 .584 .092 .555 -.009 C .524 -.107 .484 -.193 .435 -.267 C .384 -.339 .318 -.377 .238 -.38 M -.731 1.14 C -.744 1.008 -.777 .906 -.83 .835 C -.884 .767 -.949 .719 -1.028 .696 C -1.109 .673 -1.195 .668 -1.287 .681 C -1.379 .694 -1.473 .711 -1.562 .735 C -1.548 .642 -1.539 .552 -1.537 .466 C -1.535 .379 -1.525 .305 -1.508 .242 C -1.461 -.014 -1.398 -.276 -1.322 -.544 C -1.23 -.884 -1.141 -1.227 -1.053 -1.571 C -.966 -1.916 -.903 -2.268 -.867 -2.626 C -.861 -2.728 -.874 -2.838 -.905 -2.955 C -.937 -3.07 -.986 -3.166 -1.053 -3.241 C -1.119 -3.315 -1.197 -3.354 -1.285 -3.357 C -1.373 -3.359 -1.463 -3.293 -1.551 -3.158 C -1.595 -3.085 -1.617 -3.01 -1.613 -2.934 C -1.611 -2.857 -1.614 -2.778 -1.621 -2.697 C -1.635 -2.543 -1.654 -2.389 -1.678 -2.234 C -1.701 -2.081 -1.729 -1.932 -1.762 -1.788 C -1.827 -1.48 -1.896 -1.173 -1.972 -.87 C -2.047 -.566 -2.125 -.266 -2.21 .033 C -2.261 .208 -2.317 .412 -2.381 .644 C -2.443 .875 -2.445 1.088 -2.383 1.279 C -2.333 1.4 -2.268 1.487 -2.188 1.542 C -2.107 1.595 -2.019 1.629 -1.92 1.642 C -1.822 1.654 -1.724 1.648 -1.622 1.625 C -1.521 1.602 -1.424 1.574 -1.331 1.54 C -1.275 1.579 -1.21 1.598 -1.135 1.596 C -1.062 1.594 -.995 1.576 -.936 1.544 C -.876 1.512 -.827 1.462 -.787 1.395 C -.747 1.327 -.729 1.241 -.731 1.14 " fill="#be1e2d"/>
<path transform="matrix(1,0,0,-1,513.7148,445.6198)" d="M 0 0 C .017 -.102 .037 -.205 .062 -.309 C .087 -.41 .116 -.514 .15 -.617 C .129 -.372 .08 -.165 0 0 M .763 -2.045 C .743 -2.096 .72 -2.14 .696 -2.18 C .672 -2.221 .646 -2.256 .617 -2.285 C .629 -2.491 .596 -2.693 .517 -2.896 C .407 -3.096 .296 -3.2 .18 -3.208 C .062 -3.215 -.059 -3.175 -.186 -3.089 C -.164 -3.314 -.125 -3.543 -.066 -3.774 C -.008 -4.007 .06 -4.236 .138 -4.462 C .213 -4.69 .291 -4.915 .367 -5.137 C .444 -5.357 .508 -5.571 .559 -5.777 C .582 -5.89 .607 -6.011 .631 -6.14 C .655 -6.268 .628 -6.387 .551 -6.498 C .482 -6.588 .413 -6.643 .338 -6.661 C .263 -6.679 .19 -6.671 .122 -6.639 C .054 -6.606 -.007 -6.554 -.061 -6.479 C -.113 -6.407 -.145 -6.325 -.15 -6.232 C -.187 -5.904 -.264 -5.579 -.38 -5.261 C -.496 -4.939 -.597 -4.626 -.68 -4.316 C -.723 -4.172 -.77 -4.017 -.82 -3.854 C -.872 -3.688 -.912 -3.519 -.944 -3.344 C -.977 -3.169 -.992 -2.995 -.992 -2.82 C -.991 -2.647 -.966 -2.485 -.916 -2.334 C -.836 -2.161 -.737 -2.056 -.621 -2.012 C -.504 -1.97 -.381 -1.977 -.252 -2.03 C -.274 -1.825 -.311 -1.62 -.36 -1.415 C -.427 -1.146 -.502 -.882 -.587 -.618 C -.673 -.355 -.734 -.09 -.773 .177 C -.796 .35 -.791 .528 -.758 .712 C -.724 .894 -.628 1.03 -.468 1.117 C -.27 1.224 -.087 1.226 .081 1.124 C .251 1.022 .396 .87 .514 .668 C .633 .466 .729 .245 .801 .009 C .873 -.229 .916 -.425 .93 -.578 C .951 -.835 .945 -1.084 .916 -1.328 C .885 -1.573 .834 -1.812 .763 -2.045 " fill="#be1e2d"/>
<path transform="matrix(1,0,0,-1,520.1807,431.74885)" d="M 0 0 C -1.591 .621 -3.044 1.153 -4.355 1.595 C -5.667 2.036 -6.771 2.367 -7.667 2.589 C -7.752 2.612 -7.858 2.638 -7.99 2.661 C -8.268 2.722 -8.405 2.798 -8.403 2.888 C -8.399 3.036 -8.346 3.187 -8.243 3.341 C -8.142 3.497 -8.033 3.573 -7.917 3.57 C -7.802 3.566 -7.539 3.512 -7.134 3.405 C -6.728 3.299 -6.242 3.155 -5.677 2.976 C -4.354 2.552 -3.102 2.112 -1.919 1.659 C -.737 1.205 .19 .812 .861 .482 C 1.101 .364 1.282 .174 1.401 -.091 C 1.524 -.356 1.58 -.677 1.569 -1.05 C 1.565 -1.192 1.546 -1.306 1.508 -1.389 C 1.471 -1.473 1.427 -1.513 1.374 -1.513 C 1.326 -1.511 1.254 -1.489 1.158 -1.449 C 1.062 -1.411 .945 -1.354 .811 -1.282 C .512 -1.199 .193 -1.134 -.146 -1.088 C -.485 -1.041 -.87 -1.012 -1.304 -.999 C -2.194 -.974 -3.052 -.989 -3.874 -1.049 C -4.695 -1.105 -5.492 -1.208 -6.262 -1.355 C -4.496 -1.812 -2.5 -2.487 -.271 -3.38 L -.107 -3.448 C .044 -3.511 .251 -3.591 .511 -3.688 C 1.487 -4.064 1.971 -4.422 1.962 -4.759 C 1.959 -4.854 1.934 -4.934 1.888 -4.998 C 1.841 -5.062 1.785 -5.095 1.722 -5.093 C 1.685 -5.091 1.626 -5.07 1.542 -5.028 C 1.459 -4.985 1.349 -4.927 1.214 -4.848 C -.425 -4.199 -1.917 -3.643 -3.262 -3.18 C -4.608 -2.716 -5.749 -2.364 -6.687 -2.126 C -6.724 -2.115 -6.787 -2.097 -6.876 -2.073 C -7.489 -1.929 -7.79 -1.648 -7.778 -1.231 C -7.775 -1.132 -7.706 -.998 -7.569 -.83 C -7.432 -.663 -7.288 -.538 -7.139 -.458 C -6.907 -.328 -6.231 -.194 -5.108 -.058 C -3.984 .078 -2.815 .13 -1.596 .095 C -1.391 .089 -1.154 .077 -.888 .062 C -.622 .046 -.326 .025 0 0 " fill="#be1e2d"/>
</g>
<g id="Layer-1" data-name="Layer 3">
</g>
<clipPath id="cp2">
<path transform="matrix(1,0,0,-1,0,595.28)" d="M 0 595.28 L 841.89 595.28 L 841.89 0 L 0 0 Z "/>
</clipPath>
<g clip-path="url(#cp2)">
</g>
<g id="Layer-1" data-name="Layer 2">
</g>
<clipPath id="cp3">
<path transform="matrix(1,0,0,-1,0,595.28)" d="M 0 595.28 L 841.89 595.28 L 841.89 0 L 0 0 Z "/>
</clipPath>
<g clip-path="url(#cp3)">
<path transform="matrix(1,0,0,-1,171.0112,507.50364)" d="M 0 0 C -1.074 -2.398 -1.35 -4.235 -.828 -5.512 C -.308 -6.787 1.194 -7.98 3.676 -9.091 L 6.22 -10.229 L 1.5 -20.775 L -34.483 -4.674 L -29.764 5.873 L -27.345 4.79 C -24.863 3.68 -22.963 3.351 -21.644 3.803 C -20.324 4.255 -19.127 5.68 -18.054 8.08 L 10.429 71.732 C 5.828 73.542 1.976 73.255 -1.126 70.871 C -4.229 68.486 -8.116 62.184 -12.788 51.964 L -21.412 55.823 L -5.893 90.504 L 53.417 63.963 L 37.899 29.283 L 29.152 33.197 C 33.667 43.734 35.77 50.898 35.455 54.688 C 35.14 58.479 32.815 61.466 28.483 63.653 Z " fill="#be1e2d"/>
<path transform="matrix(1,0,0,-1,232.7324,505.01054)" d="M 0 0 L 12.98 -4.474 L 19.478 32.755 Z M -36.433 -30.007 L -32.67 -19.083 L -31.513 -19.481 C -29.5 -20.175 -28.054 -20.362 -27.177 -20.041 C -26.3 -19.722 -25.396 -18.762 -24.462 -17.167 L 20.021 54.782 L 38.979 48.251 L 27.797 -35.96 C 27.596 -37.376 27.743 -38.481 28.237 -39.273 C 28.73 -40.067 29.685 -40.707 31.098 -41.193 C 31.268 -41.253 31.555 -41.328 31.957 -41.417 C 32.355 -41.509 32.663 -41.59 32.877 -41.663 L 29.114 -52.588 L -3.659 -41.298 L .104 -30.374 C 2.674 -31.258 4.512 -31.629 5.616 -31.481 C 6.721 -31.335 7.488 -30.642 7.916 -29.398 C 7.976 -29.227 8.027 -29.005 8.073 -28.732 C 8.119 -28.462 8.164 -28.262 8.208 -28.133 L 10.788 -15.219 L -5.535 -9.596 L -12.593 -21.11 C -12.681 -21.225 -12.764 -21.364 -12.844 -21.527 C -12.926 -21.69 -13.009 -21.901 -13.098 -22.158 C -13.467 -23.23 -13.391 -24.191 -12.869 -25.041 C -12.347 -25.893 -11.423 -26.547 -10.094 -27.004 C -9.623 -27.166 -9.255 -27.281 -8.991 -27.349 C -8.726 -27.414 -8.509 -27.478 -8.336 -27.538 L -12.078 -38.397 Z " fill="#be1e2d"/>
<path transform="matrix(1,0,0,-1,316.377,478.74394)" d="M 0 0 L -5.833 -30.231 L -.694 -31.223 C 3.933 -32.116 7.51 -31.572 10.038 -29.59 C 12.566 -27.61 14.35 -23.927 15.389 -18.543 C 16.41 -13.249 16.124 -9.226 14.534 -6.473 C 12.941 -3.72 9.811 -1.893 5.139 -.991 Z M -13.005 -67.404 C -13.495 -69.94 -13.35 -71.757 -12.567 -72.853 C -11.788 -73.95 -10.054 -74.826 -7.364 -75.483 L -9.541 -86.763 L -42.776 -80.35 L -40.521 -69.018 C -37.834 -69.443 -35.914 -69.295 -34.759 -68.571 C -33.604 -67.849 -32.782 -66.219 -32.292 -63.683 L -20.575 -2.952 C -20.086 -.416 -20.243 1.402 -21.045 2.503 C -21.849 3.604 -23.595 4.483 -26.281 5.141 L -24.105 16.419 L 4.925 10.818 C 17.159 8.457 25.458 4.71 29.821 -.424 C 34.184 -5.557 35.443 -12.907 33.598 -22.472 C 32.25 -29.457 29.555 -34.51 25.515 -37.629 C 21.476 -40.75 16.119 -41.897 9.45 -41.071 C 14.334 -43.26 17.593 -46.104 19.226 -49.603 C 20.857 -53.102 21.218 -58.294 20.304 -65.179 C 20.149 -66.21 19.938 -67.669 19.667 -69.555 C 18.632 -76.831 19.05 -80.649 20.919 -81.01 C 22.163 -81.25 23.229 -80.694 24.113 -79.342 C 24.997 -77.989 25.727 -75.823 26.302 -72.842 C 26.362 -72.531 26.434 -72.037 26.518 -71.361 C 26.602 -70.685 26.679 -70.17 26.747 -69.813 L 34.155 -71.242 L 33.872 -72.711 C 32.276 -80.986 29.896 -86.677 26.737 -89.781 C 23.576 -92.887 19.17 -93.895 13.521 -92.804 C 7.47 -91.637 3.525 -88.822 1.687 -84.359 C -.152 -79.898 -.214 -72.618 1.505 -62.52 C 1.53 -62.387 1.564 -62.209 1.608 -61.986 C 3.658 -49.922 1.858 -43.345 -3.792 -42.254 L -7.997 -41.443 Z " fill="#be1e2d"/>
<path transform="matrix(1,0,0,-1,386.8906,533.4392)" d="M 0 0 L 13.709 -.748 L 9.769 36.838 Z M -26.827 -38.833 L -26.198 -27.295 L -24.977 -27.361 C -22.852 -27.479 -21.409 -27.262 -20.652 -26.713 C -19.897 -26.166 -19.289 -24.996 -18.827 -23.205 L 4.261 58.172 L 24.282 57.08 L 36.579 -26.976 C 36.774 -28.394 37.217 -29.416 37.909 -30.043 C 38.6 -30.672 39.693 -31.025 41.187 -31.107 C 41.367 -31.117 41.662 -31.111 42.073 -31.087 C 42.482 -31.064 42.8 -31.059 43.025 -31.07 L 42.396 -42.608 L 7.785 -40.721 L 8.414 -29.184 C 11.129 -29.331 12.997 -29.184 14.02 -28.74 C 15.042 -28.297 15.589 -27.42 15.661 -26.107 C 15.671 -25.926 15.66 -25.699 15.63 -25.425 C 15.6 -25.15 15.588 -24.945 15.596 -24.811 L 14.542 -11.684 L -2.696 -10.744 L -6.333 -23.75 C -6.385 -23.884 -6.428 -24.041 -6.46 -24.22 C -6.493 -24.4 -6.517 -24.625 -6.531 -24.896 C -6.593 -26.027 -6.258 -26.932 -5.522 -27.606 C -4.787 -28.283 -3.72 -28.658 -2.316 -28.734 C -1.819 -28.762 -1.434 -28.771 -1.161 -28.764 C -.888 -28.756 -.661 -28.756 -.48 -28.766 L -1.106 -40.236 Z " fill="#be1e2d"/>
<path transform="matrix(1,0,0,-1,469.0049,487.62965)" d="M 0 0 L 1.699 -75.425 L 4.757 -75.356 C 7.475 -75.296 9.632 -74.94 11.226 -74.293 C 12.82 -73.646 14.054 -72.632 14.931 -71.253 C 16.246 -69.274 17.118 -66.274 17.549 -62.253 C 17.979 -58.233 18.054 -49.927 17.77 -37.332 C 17.486 -24.739 17.037 -16.442 16.427 -12.445 C 15.815 -8.448 14.81 -5.491 13.406 -3.573 C 12.468 -2.235 11.19 -1.278 9.568 -.702 C 7.946 -.128 5.775 .13 3.058 .069 Z M -1.235 -87.05 L -24.338 -87.569 L -24.598 -76.018 C -22.016 -75.96 -20.204 -75.409 -19.162 -74.366 C -18.121 -73.322 -17.627 -71.556 -17.684 -69.063 L -19.076 -7.229 C -19.132 -4.737 -19.705 -2.993 -20.792 -1.998 C -21.88 -1.003 -23.715 -.534 -26.297 -.593 L -26.557 10.96 L -4.064 11.466 C 3.636 11.64 9.501 11.34 13.529 10.57 C 17.559 9.8 21.021 8.45 23.921 6.521 C 28.521 3.452 31.846 -1.267 33.894 -7.634 C 35.939 -14.001 37.111 -23.753 37.407 -36.89 C 37.703 -50.027 36.938 -59.788 35.109 -66.175 C 33.281 -72.562 30.07 -77.415 25.478 -80.736 C 22.534 -82.843 19.044 -84.383 15.01 -85.358 C 10.975 -86.332 5.561 -86.896 -1.235 -87.05 " fill="#be1e2d"/>
<path transform="matrix(1,0,0,-1,521.8652,571.38168)" d="M 0 0 L -1.786 11.416 C .883 11.941 2.635 12.742 3.47 13.819 C 4.305 14.896 4.516 16.709 4.102 19.259 L -5.816 80.31 C -6.23 82.858 -7.005 84.512 -8.137 85.269 C -9.271 86.024 -11.212 86.25 -13.962 85.94 L -15.804 97.278 L 45.65 107.262 L 50.979 74.455 L 41.05 72.843 C 39.3 81.077 36.86 86.482 33.733 89.06 C 30.605 91.638 25.71 92.385 19.046 91.303 L 12.472 90.234 L 17.397 59.91 L 18.068 60.02 C 21.423 60.564 23.612 61.919 24.639 64.082 C 25.664 66.245 25.831 70.026 25.137 75.422 L 33.926 76.85 L 40.192 38.273 L 31.403 36.846 C 30.414 42.377 29.083 46.051 27.41 47.869 C 25.738 49.686 23.18 50.314 19.735 49.755 L 19.064 49.646 L 24.579 15.699 L 31.154 16.768 C 38.31 17.93 42.895 20.51 44.907 24.511 C 46.919 28.51 47.073 35.765 45.365 46.275 L 55.296 47.888 L 61.453 9.983 Z " fill="#be1e2d"/>
<path transform="matrix(1,0,0,-1,656.4976,455.33573)" d="M 0 0 C -1.018 2.373 -2.168 3.79 -3.449 4.252 C -4.731 4.713 -6.671 4.462 -9.264 3.498 L -13.788 14.057 L 18.199 27.762 L 22.75 17.141 L 21.875 16.768 C 19.377 15.695 17.855 14.525 17.314 13.26 C 16.772 11.992 17.02 10.15 18.055 7.734 L 45.09 -55.365 L 49.651 -53.41 C 56.356 -50.537 60.204 -46.918 61.191 -42.551 C 62.18 -38.184 60.577 -31.105 56.383 -21.318 L 65.442 -17.437 L 80.566 -52.734 L 25.025 -76.532 L 20.538 -65.885 C 23.001 -64.73 24.508 -63.53 25.059 -62.283 C 25.608 -61.038 25.376 -59.227 24.358 -56.854 Z " fill="#be1e2d"/>
<path transform="matrix(1,0,0,-1,593.165,475.30253)" d="M 0 0 C -.752 2.471 -1.74 4.004 -2.964 4.604 C -4.188 5.201 -6.143 5.163 -8.826 4.488 L -12.171 15.479 L 21.122 25.61 L 24.485 14.556 L 23.575 14.279 C 20.975 13.487 19.335 12.491 18.659 11.29 C 17.981 10.09 18.026 8.231 18.792 5.719 L 38.778 -59.956 L 43.524 -58.512 C 50.504 -56.388 54.723 -53.21 56.182 -48.976 C 57.64 -44.743 56.82 -37.533 53.72 -27.345 L 63.148 -24.476 L 74.329 -61.215 L 16.522 -78.807 L 13.224 -67.732 C 15.799 -66.854 17.427 -65.826 18.11 -64.646 C 18.794 -63.469 18.76 -61.643 18.007 -59.172 Z " fill="#be1e2d"/>
<path transform="matrix(1,0,0,-1,159.2988,131.71753)" d="M 0 0 C .581 -1.199 1.213 -1.901 1.899 -2.105 C 2.585 -2.31 3.589 -2.091 4.913 -1.451 L 5.284 -1.271 L 7.835 -6.543 L -8.167 -14.287 L -10.688 -8.999 C -9.467 -8.358 -8.731 -7.715 -8.482 -7.071 C -8.233 -6.428 -8.392 -5.516 -8.963 -4.337 L -22.618 23.886 C -23.188 25.064 -23.805 25.755 -24.464 25.959 C -25.124 26.163 -26.101 25.991 -27.391 25.443 L -29.927 30.685 L -1.519 44.43 L 6.044 28.799 L 1.485 26.593 C -.654 30.752 -2.606 33.243 -4.37 34.066 C -6.133 34.89 -8.721 34.477 -12.132 32.826 L -15.171 31.355 L -8.388 17.337 L -7.706 17.667 C -6.114 18.437 -5.22 19.437 -5.024 20.668 C -4.829 21.897 -5.29 23.748 -6.408 26.218 L -2.376 28.168 L 6.253 10.335 L 2.22 8.385 C .947 10.907 -.238 12.489 -1.339 13.131 C -2.441 13.771 -3.797 13.702 -5.409 12.922 L -6.092 12.592 Z " fill="#be1e2d"/>
<path transform="matrix(1,0,0,-1,181.7783,131.99485)" d="M 0 0 L -2.369 5.357 C -1.13 5.964 -.377 6.585 -.109 7.222 C .157 7.858 .024 8.774 -.513 9.969 L -13.36 38.568 C -13.897 39.762 -14.493 40.47 -15.146 40.693 C -15.8 40.915 -16.781 40.771 -18.087 40.26 L -20.473 45.571 L 8.315 58.505 L 15.22 43.136 L 10.568 41.046 C 8.633 44.85 6.73 47.178 4.862 48.031 C 2.993 48.884 .499 48.609 -2.624 47.207 L -5.704 45.823 L .679 31.617 L .993 31.759 C 2.563 32.465 3.459 33.414 3.679 34.608 C 3.897 35.803 3.483 37.675 2.438 40.227 L 6.555 42.076 L 14.673 24.005 L 10.557 22.156 C 9.348 24.734 8.215 26.359 7.157 27.031 C 6.101 27.701 4.765 27.675 3.153 26.95 L 2.839 26.809 L 9.982 10.906 L 13.062 12.29 C 16.414 13.796 18.322 15.659 18.784 17.882 C 19.246 20.104 18.372 23.677 16.159 28.601 L 20.812 30.69 L 28.788 12.934 Z " fill="#be1e2d"/>
<path transform="matrix(1,0,0,-1,213.7646,116.70972)" d="M 0 0 L -7.802 19.663 L -2.935 21.595 C -.818 17.072 1.645 13.774 4.456 11.702 C 7.268 9.63 9.955 9.102 12.518 10.119 C 13.905 10.669 14.844 11.555 15.337 12.775 C 15.828 13.996 15.781 15.343 15.197 16.816 C 14.579 18.375 13.631 19.611 12.354 20.525 C 11.077 21.439 9.228 22.207 6.807 22.828 C 5.767 23.083 4.328 23.438 2.491 23.896 C -1.366 24.836 -3.834 25.513 -4.912 25.926 C -7.967 27.086 -10.228 28.313 -11.692 29.61 C -13.159 30.906 -14.315 32.623 -15.162 34.758 C -16.561 38.28 -16.646 41.644 -15.422 44.848 C -14.198 48.052 -11.984 50.289 -8.782 51.56 C -6.732 52.373 -4.839 52.754 -3.101 52.702 C -1.361 52.65 .38 52.168 2.127 51.255 L 2.68 54.811 L 6.49 56.322 L 13.365 38.997 L 8.53 37.078 C 6.63 41.118 4.512 43.997 2.175 45.714 C -.162 47.431 -2.483 47.832 -4.79 46.917 C -6.198 46.358 -7.16 45.513 -7.676 44.382 C -8.19 43.251 -8.186 42.023 -7.66 40.7 C -6.839 38.629 -3.525 36.94 2.28 35.637 L 3.176 35.436 C 9.396 34.023 13.773 32.425 16.311 30.639 C 18.848 28.853 20.769 26.316 22.073 23.028 C 23.699 18.929 23.906 15.23 22.695 11.933 C 21.482 8.635 19.052 6.261 15.4 4.812 C 13.521 4.067 11.669 3.753 9.844 3.868 C 8.02 3.984 6.214 4.516 4.43 5.464 L 3.875 1.537 Z " fill="#be1e2d"/>
<path transform="matrix(1,0,0,-1,257.3516,93.43634)" d="M 0 0 C .414 -1.267 .936 -2.05 1.565 -2.352 C 2.195 -2.653 3.166 -2.59 4.476 -2.162 L 5.819 -1.723 L 7.639 -7.29 L -11.356 -13.499 L -13.176 -7.931 L -11.898 -7.514 C -10.589 -7.085 -9.764 -6.562 -9.422 -5.943 C -9.08 -5.324 -9.116 -4.382 -9.53 -3.115 L -20.513 30.485 C -22.857 29.598 -24.206 28.179 -24.559 26.228 C -24.912 24.274 -24.225 20.585 -22.498 15.156 L -27.051 13.669 L -33.034 31.976 L -1.726 42.209 L 4.258 23.902 L -.359 22.393 C -2.253 27.887 -3.903 31.293 -5.312 32.608 C -6.722 33.924 -8.611 34.254 -10.982 33.6 Z " fill="#be1e2d"/>
<path transform="matrix(1,0,0,-1,276.8037,77.403018)" d="M 0 0 L 6.755 1.673 L -.734 19.305 Z M -7.237 -22.805 L -8.646 -17.12 L -8.044 -16.971 C -6.996 -16.711 -6.329 -16.393 -6.045 -16.014 C -5.76 -15.637 -5.638 -14.979 -5.681 -14.042 L -6.572 28.828 L 3.294 31.271 L 21.734 -7.644 C 22.039 -8.302 22.406 -8.731 22.834 -8.933 C 23.263 -9.135 23.846 -9.145 24.582 -8.962 C 24.67 -8.94 24.813 -8.893 25.007 -8.821 C 25.202 -8.75 25.354 -8.699 25.467 -8.672 L 26.875 -14.357 L 9.818 -18.581 L 8.41 -12.896 C 9.748 -12.564 10.632 -12.215 11.063 -11.848 C 11.491 -11.482 11.627 -10.976 11.467 -10.329 C 11.444 -10.24 11.405 -10.131 11.351 -10.002 C 11.295 -9.874 11.26 -9.776 11.243 -9.71 L 8.782 -3.504 L .288 -5.607 L .457 -12.451 C .451 -12.524 .453 -12.607 .465 -12.698 C .476 -12.791 .497 -12.903 .53 -13.037 C .668 -13.595 .966 -13.982 1.423 -14.201 C 1.879 -14.419 2.451 -14.443 3.143 -14.271 C 3.389 -14.211 3.576 -14.159 3.707 -14.114 C 3.838 -14.069 3.949 -14.036 4.038 -14.014 L 5.437 -19.666 Z " fill="#be1e2d"/>
<path transform="matrix(1,0,0,-1,323.6582,77.59595)" d="M 0 0 C .213 -1.176 .608 -1.974 1.187 -2.394 C 1.764 -2.815 2.66 -2.962 3.874 -2.834 L 4.913 -8.564 L -7.665 -10.843 L -8.675 -5.073 C -7.327 -4.783 -6.446 -4.361 -6.033 -3.807 C -5.62 -3.254 -5.53 -2.333 -5.764 -1.044 L -11.354 29.806 C -11.587 31.094 -11.995 31.925 -12.576 32.298 C -13.156 32.671 -14.143 32.768 -15.533 32.585 L -16.571 38.315 L -.027 41.313 L 10.459 11.454 L 10.381 43.199 L 26.483 46.117 L 27.528 40.353 C 26.18 40.062 25.303 39.623 24.896 39.036 C 24.488 38.449 24.396 37.544 24.616 36.324 L 30.207 5.473 C 30.432 4.229 30.85 3.402 31.463 2.987 C 32.074 2.573 33.036 2.484 34.347 2.722 L 35.391 -3.042 L 20.033 -5.825 L 19.022 -.055 C 20.186 .226 20.96 .658 21.344 1.242 C 21.729 1.824 21.812 2.715 21.596 3.913 L 15.643 36.764 L 15.253 -6.69 L 9.354 -7.759 L -5.953 32.851 Z " fill="#be1e2d"/>
<path transform="matrix(1,0,0,-1,369.8062,59.632509)" d="M 0 0 L 6.938 .55 L 2.419 19.166 Z M -10.854 -21.323 L -11.317 -15.483 L -10.699 -15.434 C -9.623 -15.349 -8.914 -15.143 -8.57 -14.816 C -8.229 -14.49 -8.002 -13.861 -7.891 -12.931 L -1.789 29.512 L 8.344 30.316 L 20.199 -11.082 C 20.393 -11.781 20.686 -12.265 21.075 -12.533 C 21.465 -12.802 22.038 -12.907 22.793 -12.847 C 22.885 -12.839 23.033 -12.816 23.237 -12.776 C 23.441 -12.738 23.601 -12.713 23.715 -12.704 L 24.179 -18.543 L 6.662 -19.933 L 6.199 -14.093 C 7.572 -13.984 8.502 -13.785 8.985 -13.493 C 9.469 -13.201 9.685 -12.723 9.632 -12.059 C 9.625 -11.967 9.604 -11.854 9.57 -11.718 C 9.536 -11.583 9.518 -11.48 9.512 -11.412 L 8.095 -4.888 L -.628 -5.58 L -1.576 -12.36 C -1.595 -12.431 -1.605 -12.513 -1.609 -12.605 C -1.614 -12.698 -1.61 -12.813 -1.6 -12.95 C -1.555 -13.522 -1.324 -13.954 -.909 -14.243 C -.495 -14.533 .067 -14.65 .777 -14.593 C 1.029 -14.573 1.224 -14.553 1.359 -14.529 C 1.497 -14.507 1.611 -14.493 1.702 -14.485 L 2.163 -20.29 Z " fill="#be1e2d"/>
<path transform="matrix(1,0,0,-1,400.9478,37.281007)" d="M 0 0 C -.103 1.328 -.43 2.214 -.982 2.654 C -1.535 3.095 -2.486 3.264 -3.838 3.159 L -5.452 3.034 L -5.904 8.874 L 12.508 10.298 L 12.96 4.458 C 11.774 4.297 10.961 3.946 10.519 3.405 C 10.077 2.864 9.902 1.986 9.996 .773 L 11.292 -15.99 C 11.473 -18.326 11.69 -20.838 11.945 -23.525 C 12.198 -26.213 12.339 -27.728 12.365 -28.071 C 12.679 -32.125 11.938 -35.351 10.141 -37.746 C 8.345 -40.144 5.695 -41.478 2.191 -41.748 C -.718 -41.973 -3.113 -41.368 -4.998 -39.937 C -6.884 -38.505 -7.925 -36.494 -8.125 -33.906 C -8.258 -32.188 -7.902 -30.75 -7.06 -29.591 C -6.216 -28.432 -5.085 -27.797 -3.665 -27.687 C -2.313 -27.583 -1.215 -27.936 -.369 -28.745 C .477 -29.556 .958 -30.704 1.073 -32.193 C 1.159 -33.315 .917 -34.273 .345 -35.065 C -.229 -35.859 -1.046 -36.377 -2.109 -36.62 C -1.815 -36.852 -1.498 -37.011 -1.157 -37.1 C -.816 -37.189 -.439 -37.217 -.027 -37.186 C 1.163 -37.093 2.046 -36.662 2.62 -35.892 C 3.193 -35.121 3.43 -34.072 3.327 -32.744 C 3.226 -31.438 3.002 -29.953 2.653 -28.286 C 2.307 -26.621 2.119 -25.615 2.093 -25.272 C 2.087 -25.203 2.074 -25.031 2.053 -24.757 C 1.86 -23.458 1.717 -22.203 1.623 -20.988 Z " fill="#be1e2d"/>
<path transform="matrix(1,0,0,-1,430.4839,71.994449)" d="M 0 0 C 1.673 .092 2.76 1.269 3.257 3.526 C 3.754 5.785 3.761 11.318 3.277 20.126 C 2.793 28.955 2.18 34.471 1.437 36.673 C .696 38.876 -.513 39.931 -2.187 39.839 C -3.861 39.747 -4.958 38.565 -5.478 36.294 C -5.997 34.022 -6.015 28.472 -5.53 19.643 C -5.045 10.812 -4.421 5.308 -3.657 3.13 C -2.894 .952 -1.675 -.092 0 0 M .34 -6.191 C -2.229 -6.332 -4.48 -5.99 -6.411 -5.164 C -8.343 -4.34 -9.992 -3.01 -11.357 -1.175 C -12.623 .503 -13.605 2.9 -14.305 6.014 C -15.005 9.126 -15.509 13.48 -15.816 19.078 C -16.124 24.695 -16.102 29.096 -15.747 32.279 C -15.393 35.461 -14.678 37.956 -13.604 39.764 C -12.448 41.736 -10.954 43.239 -9.124 44.271 C -7.295 45.304 -5.095 45.89 -2.526 46.03 C .042 46.171 2.286 45.829 4.207 45.002 C 6.126 44.177 7.77 42.846 9.136 41.012 C 10.401 39.333 11.378 36.936 12.067 33.822 C 12.755 30.709 13.254 26.332 13.563 20.69 C 13.871 15.093 13.853 10.71 13.51 7.54 C 13.166 4.369 12.457 1.88 11.383 .073 C 10.226 -1.9 8.738 -3.402 6.92 -4.433 C 5.102 -5.465 2.908 -6.051 .34 -6.191 " fill="#be1e2d"/>
<path transform="matrix(1,0,0,-1,460.2793,31.764954)" d="M 0 0 L -.155 -15.607 L 2.498 -15.634 C 4.886 -15.657 6.621 -15.061 7.701 -13.842 C 8.781 -12.623 9.335 -10.626 9.363 -7.847 C 9.39 -5.113 8.881 -3.133 7.837 -1.904 C 6.792 -.677 5.064 -.05 2.653 -.026 Z M -.346 -34.797 C -.359 -36.106 -.122 -36.999 .368 -37.474 C .857 -37.95 1.802 -38.229 3.202 -38.313 L 3.144 -44.135 L -14.013 -43.964 L -13.92 -38.107 C -12.542 -38.075 -11.598 -37.826 -11.087 -37.36 C -10.578 -36.896 -10.316 -36.007 -10.303 -34.697 L -9.991 -3.346 C -9.978 -2.037 -10.222 -1.146 -10.722 -.669 C -11.224 -.192 -12.174 .086 -13.574 .17 L -13.516 5.992 L 1.471 5.843 C 7.787 5.78 12.267 4.668 14.91 2.505 C 17.553 .342 18.85 -3.209 18.8 -8.146 C 18.765 -11.753 17.881 -14.517 16.151 -16.441 C 14.42 -18.365 11.854 -19.425 8.453 -19.621 C 11.088 -20.268 12.972 -21.389 14.104 -22.985 C 15.237 -24.581 15.89 -27.137 16.061 -30.653 C 16.079 -31.183 16.105 -31.928 16.143 -32.894 C 16.289 -36.616 16.845 -38.482 17.81 -38.492 C 18.453 -38.499 18.933 -38.124 19.25 -37.37 C 19.569 -36.614 19.735 -35.467 19.75 -33.928 C 19.752 -33.768 19.743 -33.515 19.723 -33.17 C 19.704 -32.825 19.695 -32.562 19.697 -32.378 L 23.521 -32.416 L 23.513 -33.174 C 23.471 -37.446 22.803 -40.5 21.51 -42.336 C 20.217 -44.173 18.111 -45.076 15.195 -45.047 C 12.071 -45.016 9.848 -43.973 8.524 -41.914 C 7.201 -39.856 6.507 -36.232 6.445 -31.041 C 6.445 -30.972 6.446 -30.881 6.447 -30.766 C 6.371 -24.562 4.874 -21.446 1.958 -21.417 L -.213 -21.396 Z " fill="#be1e2d"/>
<path transform="matrix(1,0,0,-1,509.5098,39.21411)" d="M 0 0 C .185 1.318 .056 2.253 -.389 2.803 C -.833 3.354 -1.727 3.722 -3.069 3.91 L -4.672 4.136 L -3.857 9.936 L 14.43 7.365 L 13.615 1.565 C 12.423 1.664 11.552 1.496 11.004 1.063 C 10.456 .629 10.098 -.19 9.928 -1.395 L 7.588 -18.046 C 7.262 -20.366 6.935 -22.864 6.604 -25.545 C 6.274 -28.225 6.086 -29.733 6.038 -30.074 C 5.472 -34.102 4.054 -37.091 1.785 -39.046 C -.485 -40.999 -3.359 -41.731 -6.839 -41.242 C -9.729 -40.836 -11.939 -39.731 -13.472 -37.929 C -15.004 -36.123 -15.589 -33.937 -15.228 -31.366 C -14.988 -29.66 -14.332 -28.332 -13.259 -27.38 C -12.187 -26.43 -10.945 -26.053 -9.535 -26.251 C -8.192 -26.439 -7.195 -27.021 -6.543 -27.993 C -5.892 -28.966 -5.669 -30.192 -5.877 -31.671 C -6.034 -32.786 -6.477 -33.668 -7.207 -34.319 C -7.936 -34.971 -8.846 -35.302 -9.938 -35.31 C -9.7 -35.6 -9.424 -35.823 -9.11 -35.982 C -8.797 -36.144 -8.435 -36.252 -8.025 -36.31 C -6.843 -36.476 -5.888 -36.244 -5.162 -35.615 C -4.436 -34.987 -3.979 -34.013 -3.794 -32.694 C -3.612 -31.397 -3.512 -29.898 -3.493 -28.196 C -3.474 -26.494 -3.44 -25.472 -3.393 -25.131 C -3.383 -25.062 -3.359 -24.892 -3.321 -24.619 C -3.229 -23.31 -3.099 -22.053 -2.93 -20.848 Z " fill="#be1e2d"/>
<path transform="matrix(1,0,0,-1,533.8955,77.29663)" d="M 0 0 C 1.637 -.357 2.998 .486 4.079 2.53 C 5.161 4.575 6.643 9.905 8.525 18.522 C 10.413 27.161 11.293 32.643 11.165 34.962 C 11.037 37.282 10.154 38.621 8.517 38.979 C 6.878 39.337 5.505 38.49 4.399 36.44 C 3.293 34.39 1.796 29.044 -.092 20.405 C -1.979 11.766 -2.846 6.293 -2.69 3.992 C -2.536 1.688 -1.639 .358 0 0 M -1.324 -6.059 C -3.837 -5.509 -5.915 -4.579 -7.556 -3.269 C -9.198 -1.957 -10.433 -.236 -11.259 1.896 C -12.031 3.852 -12.339 6.423 -12.184 9.61 C -12.028 12.798 -11.352 17.128 -10.156 22.604 C -8.955 28.101 -7.759 32.337 -6.569 35.31 C -5.379 38.282 -4.024 40.496 -2.507 41.951 C -.867 43.544 .973 44.595 3.012 45.101 C 5.05 45.608 7.327 45.587 9.84 45.037 C 12.353 44.488 14.425 43.56 16.056 42.251 C 17.686 40.943 18.915 39.222 19.742 37.09 C 20.514 35.135 20.816 32.563 20.649 29.38 C 20.482 26.196 19.796 21.844 18.59 16.323 C 17.394 10.847 16.207 6.629 15.03 3.665 C 13.854 .7 12.507 -1.51 10.99 -2.965 C 9.349 -4.559 7.515 -5.608 5.487 -6.118 C 3.459 -6.628 1.189 -6.607 -1.324 -6.059 " fill="#be1e2d"/>
<path transform="matrix(1,0,0,-1,584.0225,89.94803)" d="M 0 0 L 1.549 5.649 C 2.892 5.337 3.868 5.342 4.478 5.667 C 5.087 5.99 5.562 6.785 5.901 8.051 L 14.011 38.337 C 14.349 39.602 14.334 40.526 13.969 41.111 C 13.603 41.697 12.751 42.204 11.416 42.634 L 12.922 48.258 L 43.408 40.095 L 39.05 23.82 L 34.125 25.14 C 35.027 29.311 35.023 32.316 34.113 34.158 C 33.203 36 31.096 37.364 27.79 38.249 L 24.529 39.123 L 20.501 24.08 L 20.834 23.99 C 22.498 23.545 23.792 23.715 24.716 24.502 C 25.64 25.29 26.503 27.002 27.305 29.641 L 31.664 28.473 L 26.54 9.337 L 22.181 10.505 C 22.872 13.267 23.021 15.241 22.626 16.431 C 22.23 17.618 21.178 18.44 19.47 18.897 L 19.137 18.987 L 14.628 2.147 L 17.89 1.273 C 21.439 .323 24.096 .562 25.858 1.993 C 27.62 3.424 29.2 6.746 30.596 11.961 L 35.521 10.642 L 30.486 -8.163 Z " fill="#be1e2d"/>
<path transform="matrix(1,0,0,-1,627.2285,100.587619)" d="M 0 0 L .632 1.491 C 1.815 4.283 3.24 6.704 4.907 8.754 C 6.574 10.803 8.507 12.51 10.707 13.873 C 12.647 15.097 15.427 16.388 19.047 17.747 C 20.104 18.123 20.873 18.407 21.355 18.604 C 24.969 20.065 27.594 21.447 29.231 22.75 C 30.868 24.051 32.076 25.622 32.856 27.463 C 33.824 29.747 34.022 31.789 33.451 33.59 C 32.88 35.392 31.621 36.704 29.676 37.528 C 28.132 38.183 26.652 38.343 25.238 38.007 C 23.823 37.671 22.58 36.856 21.509 35.564 C 21.994 35.709 22.434 35.776 22.831 35.772 C 23.227 35.765 23.595 35.69 23.934 35.547 C 25.139 35.036 25.948 34.238 26.361 33.151 C 26.774 32.066 26.721 30.91 26.201 29.684 C 25.574 28.203 24.608 27.204 23.302 26.685 C 21.997 26.165 20.593 26.223 19.092 26.859 C 17.442 27.558 16.368 28.675 15.87 30.208 C 15.373 31.741 15.527 33.46 16.333 35.362 C 17.732 38.662 20.029 40.875 23.227 42.002 C 26.423 43.13 29.862 42.913 33.542 41.354 C 37.391 39.723 39.963 37.36 41.26 34.267 C 42.555 31.173 42.409 27.755 40.823 24.012 C 40.097 22.299 39.104 20.767 37.847 19.416 C 36.589 18.066 35.136 16.978 33.49 16.155 C 31.326 15.052 28.177 13.979 24.043 12.937 C 23.091 12.69 22.392 12.514 21.946 12.403 C 17.716 11.251 14.695 10.144 12.885 9.078 C 11.072 8.012 9.51 6.634 8.196 4.946 C 9.313 5.17 10.342 5.259 11.282 5.209 C 12.222 5.16 13.094 4.966 13.897 4.625 C 14.828 4.23 15.996 3.455 17.401 2.298 C 18.807 1.142 19.838 .424 20.493 .146 C 22.143 -.554 23.571 -.479 24.779 .369 C 25.986 1.217 27.185 2.985 28.375 5.675 L 32.023 4.128 L 30.84 1.336 C 28.958 -3.104 26.875 -6.15 24.591 -7.802 C 22.306 -9.454 19.821 -9.71 17.136 -8.572 C 16.205 -8.178 15.363 -7.633 14.609 -6.94 C 13.855 -6.247 12.925 -5.116 11.817 -3.549 C 11.66 -3.333 11.434 -3.012 11.14 -2.588 C 10.014 -.89 9.028 .141 8.183 .499 C 7.336 .857 6.521 .859 5.734 .508 C 4.949 .153 4.243 -.525 3.616 -1.533 Z " fill="#be1e2d"/>
<path transform="matrix(1,0,0,-1,581.5483,47.00464)" d="M 0 0 C .038 .087 .07 .175 .098 .263 C .125 .352 .154 .486 .186 .668 C .284 1.233 .128 1.68 -.28 2.008 C -.69 2.336 -1.455 2.632 -2.574 2.897 L -1.576 8.634 L 11.289 6.395 L 10.285 .624 L 9.64 .736 C 8.599 .918 7.874 .904 7.465 .695 C 7.055 .487 6.681 -.055 6.343 -.928 L -9.665 -40.668 L -19.475 -38.961 L -20.646 4.153 C -20.663 4.855 -20.834 5.38 -21.158 5.729 C -21.482 6.075 -22.006 6.312 -22.73 6.438 C -22.822 6.454 -22.964 6.468 -23.161 6.479 C -23.357 6.489 -23.523 6.507 -23.659 6.53 L -22.655 12.301 L -5.343 9.289 L -6.347 3.519 C -7.705 3.755 -8.655 3.791 -9.196 3.63 C -9.737 3.466 -10.064 3.058 -10.179 2.401 C -10.19 2.334 -10.198 2.225 -10.201 2.073 C -10.204 1.922 -10.211 1.813 -10.223 1.745 L -10.8 -28.301 Z " fill="#be1e2d"/>
<path transform="matrix(1,0,0,-1,685.4087,121.34793)" d="M 0 0 L .646 1.484 C 1.854 4.266 3.301 6.674 4.987 8.708 C 6.672 10.743 8.621 12.432 10.833 13.774 C 12.784 14.98 15.575 16.247 19.208 17.574 C 20.269 17.938 21.04 18.218 21.523 18.408 C 25.15 19.838 27.788 21.195 29.437 22.482 C 31.085 23.77 32.308 25.329 33.105 27.163 C 34.093 29.437 34.31 31.479 33.755 33.284 C 33.2 35.091 31.954 36.415 30.015 37.257 C 28.478 37.925 27 38.099 25.582 37.775 C 24.165 37.452 22.915 36.649 21.831 35.366 C 22.317 35.507 22.758 35.57 23.155 35.562 C 23.551 35.552 23.918 35.474 24.255 35.327 C 25.457 34.806 26.258 34.001 26.662 32.91 C 27.064 31.82 27.001 30.665 26.47 29.443 C 25.83 27.97 24.854 26.979 23.543 26.472 C 22.234 25.963 20.831 26.034 19.335 26.684 C 17.692 27.397 16.627 28.524 16.145 30.062 C 15.661 31.6 15.831 33.316 16.655 35.211 C 18.083 38.498 20.4 40.69 23.608 41.789 C 26.814 42.888 30.25 42.641 33.917 41.047 C 37.75 39.381 40.301 36.996 41.57 33.891 C 42.836 30.784 42.66 27.366 41.04 23.638 C 40.298 21.932 39.292 20.409 38.022 19.071 C 36.751 17.732 35.289 16.658 33.635 15.85 C 31.461 14.766 28.302 13.722 24.16 12.717 C 23.206 12.48 22.504 12.309 22.058 12.202 C 17.818 11.089 14.787 10.009 12.966 8.96 C 11.145 7.91 9.57 6.548 8.241 4.871 C 9.36 5.084 10.39 5.164 11.329 5.106 C 12.268 5.049 13.138 4.846 13.939 4.498 C 14.866 4.096 16.027 3.309 17.422 2.14 C 18.816 .97 19.841 .243 20.494 -.041 C 22.137 -.755 23.566 -.693 24.782 .143 C 25.997 .98 27.21 2.737 28.425 5.416 L 32.059 3.837 L 30.851 1.056 C 28.928 -3.368 26.817 -6.396 24.519 -8.025 C 22.219 -9.656 19.732 -9.891 17.057 -8.729 C 16.13 -8.325 15.293 -7.773 14.545 -7.073 C 13.798 -6.373 12.878 -5.234 11.785 -3.656 C 11.629 -3.438 11.406 -3.116 11.116 -2.689 C 10.005 -.98 9.029 .059 8.187 .424 C 7.344 .791 6.528 .801 5.739 .455 C 4.95 .107 4.238 -.564 3.602 -1.565 Z " fill="#be1e2d"/>
<path transform="matrix(1,0,0,-1,710.8887,133.25363)" d="M 0 0 L .791 1.414 C 2.271 4.061 3.951 6.312 5.832 8.167 C 7.712 10.023 9.819 11.509 12.155 12.625 C 14.217 13.629 17.12 14.61 20.867 15.568 C 21.959 15.825 22.754 16.025 23.255 16.167 C 27.006 17.227 29.766 18.314 31.535 19.431 C 33.305 20.547 34.676 21.977 35.652 23.721 C 36.863 25.886 37.282 27.895 36.911 29.747 C 36.54 31.601 35.431 33.042 33.587 34.073 C 32.124 34.893 30.67 35.211 29.228 35.032 C 27.784 34.852 26.46 34.179 25.254 33.01 C 25.752 33.101 26.197 33.121 26.592 33.072 C 26.985 33.022 27.342 32.908 27.663 32.729 C 28.806 32.09 29.523 31.209 29.815 30.084 C 30.107 28.959 29.929 27.816 29.279 26.653 C 28.494 25.251 27.425 24.362 26.07 23.988 C 24.716 23.613 23.326 23.824 21.903 24.621 C 20.34 25.495 19.394 26.721 19.066 28.3 C 18.739 29.878 19.08 31.57 20.088 33.373 C 21.838 36.502 24.362 38.449 27.664 39.223 C 30.964 39.996 34.358 39.406 37.847 37.455 C 41.495 35.414 43.795 32.786 44.746 29.57 C 45.697 26.353 45.181 22.971 43.195 19.422 C 42.288 17.799 41.134 16.384 39.737 15.18 C 38.339 13.974 36.776 13.051 35.05 12.412 C 32.779 11.551 29.532 10.827 25.31 10.241 C 24.336 10.101 23.622 10 23.167 9.939 C 18.837 9.255 15.713 8.482 13.797 7.62 C 11.879 6.758 10.176 5.559 8.687 4.023 C 9.821 4.125 10.854 4.101 11.783 3.95 C 12.712 3.799 13.557 3.511 14.319 3.084 C 15.201 2.591 16.277 1.692 17.549 .389 C 18.819 -.914 19.766 -1.739 20.388 -2.087 C 21.951 -2.962 23.379 -3.043 24.672 -2.332 C 25.965 -1.621 27.349 .007 28.824 2.551 L 32.282 .616 L 30.802 -2.03 C 28.448 -6.239 26.045 -9.041 23.595 -10.434 C 21.144 -11.826 18.646 -11.811 16.101 -10.387 C 15.218 -9.894 14.44 -9.261 13.767 -8.49 C 13.093 -7.718 12.291 -6.493 11.361 -4.815 C 11.228 -4.582 11.038 -4.238 10.792 -3.785 C 9.857 -1.975 8.99 -.843 8.188 -.395 C 7.386 .054 6.576 .145 5.756 -.12 C 4.937 -.386 4.161 -.984 3.428 -1.917 Z " fill="#be1e2d"/>
<path transform="matrix(1,0,0,-1,672.4805,111.50754)" d="M 0 0 C 1.479 -.567 2.919 .14 4.322 2.124 C 5.723 4.107 8.083 9.42 11.4 18.062 C 14.742 26.768 16.558 32.332 16.849 34.755 C 17.139 37.179 16.545 38.674 15.065 39.242 C 13.606 39.802 12.151 39.007 10.699 36.858 C 9.247 34.71 6.907 29.432 3.681 21.025 C .47 12.663 -1.311 7.208 -1.661 4.661 C -2.012 2.113 -1.459 .561 0 0 M -1.827 -4.76 C -3.972 -3.937 -5.671 -2.786 -6.924 -1.309 C -8.178 .169 -9.018 1.986 -9.444 4.143 C -9.8 6.101 -9.63 8.643 -8.934 11.771 C -8.237 14.898 -6.876 19.101 -4.851 24.376 C -2.834 29.629 -1.04 33.645 .532 36.426 C 2.103 39.204 3.676 41.203 5.25 42.42 C 7.027 43.779 8.87 44.591 10.78 44.854 C 12.689 45.118 14.727 44.834 16.893 44.002 C 19.08 43.163 20.8 42.004 22.054 40.526 C 23.307 39.049 24.139 37.21 24.55 35.012 C 24.934 33.066 24.777 30.544 24.079 27.441 C 23.38 24.338 22.014 20.139 19.98 14.843 C 17.947 9.546 16.147 5.5 14.583 2.706 C 13.018 -.088 11.441 -2.079 9.854 -3.266 C 8.115 -4.592 6.27 -5.378 4.317 -5.625 C 2.365 -5.871 .316 -5.583 -1.827 -4.76 " fill="#be1e2d"/>
</g>
</g>
</g>
</g>
</svg>
